<mxfile host="Electron" modified="2023-10-03T15:55:36.865Z" agent="Mozilla/5.0 (X11; Linux x86_64) AppleWebKit/537.36 (KHTML, like Gecko) draw.io/22.0.2 Chrome/114.0.5735.289 Electron/25.8.4 Safari/537.36" etag="iYu-sIAY1ACpAa9j-Hv5" version="22.0.2" type="device">
  <diagram name="Page-1" id="YwsV7iIbTK0FgV5FDpMz">
    <mxGraphModel dx="2058" dy="1169" grid="1" gridSize="10" guides="1" tooltips="1" connect="1" arrows="1" fold="1" page="1" pageScale="1" pageWidth="850" pageHeight="1100" background="#2e3440" math="0" shadow="0">
      <root>
        <mxCell id="0" />
        <mxCell id="1" parent="0" />
        <mxCell id="_4XBoN6raB5tsVcWmZe8-442" value="" style="rounded=0;whiteSpace=wrap;html=1;fillColor=#4c566a;" vertex="1" parent="1">
          <mxGeometry x="-580" y="990" width="240" height="630" as="geometry" />
        </mxCell>
        <mxCell id="_4XBoN6raB5tsVcWmZe8-333" value="" style="rounded=0;whiteSpace=wrap;html=1;fillColor=#3b4252;" vertex="1" parent="1">
          <mxGeometry x="-570" y="610" width="220" height="320" as="geometry" />
        </mxCell>
        <mxCell id="_4XBoN6raB5tsVcWmZe8-3" value="3.3V PWR" style="rounded=0;whiteSpace=wrap;html=1;align=right;spacingTop=0;spacingRight=3;fillColor=none;" vertex="1" parent="1">
          <mxGeometry x="-700" y="120" width="160" height="20" as="geometry" />
        </mxCell>
        <mxCell id="_4XBoN6raB5tsVcWmZe8-4" value="GPIO2 (SDA1, I2C)" style="rounded=0;whiteSpace=wrap;html=1;align=right;spacingTop=0;spacingRight=3;fillColor=none;" vertex="1" parent="1">
          <mxGeometry x="-700" y="140" width="160" height="20" as="geometry" />
        </mxCell>
        <mxCell id="_4XBoN6raB5tsVcWmZe8-6" value="GPIO3 (SCL1, I2C)" style="rounded=0;whiteSpace=wrap;html=1;align=right;spacingTop=0;spacingRight=3;fillColor=none;" vertex="1" parent="1">
          <mxGeometry x="-700" y="160" width="160" height="20" as="geometry" />
        </mxCell>
        <mxCell id="_4XBoN6raB5tsVcWmZe8-7" value="GPIO4 (GPIO_GCLK)" style="rounded=0;whiteSpace=wrap;html=1;align=right;spacingTop=0;spacingRight=3;fillColor=none;" vertex="1" parent="1">
          <mxGeometry x="-700" y="180" width="160" height="20" as="geometry" />
        </mxCell>
        <mxCell id="_4XBoN6raB5tsVcWmZe8-8" value="GND" style="rounded=0;whiteSpace=wrap;html=1;align=right;spacingTop=0;spacingRight=3;fillColor=none;" vertex="1" parent="1">
          <mxGeometry x="-700" y="200" width="160" height="20" as="geometry" />
        </mxCell>
        <mxCell id="_4XBoN6raB5tsVcWmZe8-9" value="GPIO17 (GPIO_GEN0)" style="rounded=0;whiteSpace=wrap;html=1;align=right;spacingTop=0;spacingRight=3;fillColor=none;" vertex="1" parent="1">
          <mxGeometry x="-700" y="220" width="160" height="20" as="geometry" />
        </mxCell>
        <mxCell id="_4XBoN6raB5tsVcWmZe8-11" value="GPIO27 (GPIO_GEN2)" style="rounded=0;whiteSpace=wrap;html=1;align=right;spacingTop=0;spacingRight=3;fillColor=none;" vertex="1" parent="1">
          <mxGeometry x="-700" y="240" width="160" height="20" as="geometry" />
        </mxCell>
        <mxCell id="_4XBoN6raB5tsVcWmZe8-12" value="GPIO22 (GPIO_GEN3)" style="rounded=0;whiteSpace=wrap;html=1;align=right;spacingTop=0;spacingRight=3;fillColor=none;" vertex="1" parent="1">
          <mxGeometry x="-700" y="260" width="160" height="20" as="geometry" />
        </mxCell>
        <mxCell id="_4XBoN6raB5tsVcWmZe8-13" value="3.3V PWR" style="rounded=0;whiteSpace=wrap;html=1;align=right;spacingTop=0;spacingRight=3;fillColor=none;" vertex="1" parent="1">
          <mxGeometry x="-700" y="280" width="160" height="20" as="geometry" />
        </mxCell>
        <mxCell id="_4XBoN6raB5tsVcWmZe8-14" value="GPIO10 (SPI0_MOSI)" style="rounded=0;whiteSpace=wrap;html=1;align=right;spacingTop=0;spacingRight=3;fillColor=none;" vertex="1" parent="1">
          <mxGeometry x="-700" y="300" width="160" height="20" as="geometry" />
        </mxCell>
        <mxCell id="_4XBoN6raB5tsVcWmZe8-15" value="GPIO9 (SPI0_MISO)" style="rounded=0;whiteSpace=wrap;html=1;align=right;spacingTop=0;spacingRight=3;fillColor=none;" vertex="1" parent="1">
          <mxGeometry x="-700" y="320" width="160" height="20" as="geometry" />
        </mxCell>
        <mxCell id="_4XBoN6raB5tsVcWmZe8-16" value="GPIO11 (SPI0-CLK)" style="rounded=0;whiteSpace=wrap;html=1;align=right;spacingTop=0;spacingRight=3;fillColor=none;" vertex="1" parent="1">
          <mxGeometry x="-700" y="340" width="160" height="20" as="geometry" />
        </mxCell>
        <mxCell id="_4XBoN6raB5tsVcWmZe8-17" value="GND" style="rounded=0;whiteSpace=wrap;html=1;align=right;spacingTop=0;spacingRight=3;fillColor=none;" vertex="1" parent="1">
          <mxGeometry x="-700" y="360" width="160" height="20" as="geometry" />
        </mxCell>
        <mxCell id="_4XBoN6raB5tsVcWmZe8-18" value="ID_SD (I2C EEPROM)" style="rounded=0;whiteSpace=wrap;html=1;align=right;spacingTop=0;spacingRight=3;fillColor=none;" vertex="1" parent="1">
          <mxGeometry x="-700" y="380" width="160" height="20" as="geometry" />
        </mxCell>
        <mxCell id="_4XBoN6raB5tsVcWmZe8-19" value="GPIO5" style="rounded=0;whiteSpace=wrap;html=1;align=right;spacingTop=0;spacingRight=3;fillColor=none;" vertex="1" parent="1">
          <mxGeometry x="-700" y="400" width="160" height="20" as="geometry" />
        </mxCell>
        <mxCell id="_4XBoN6raB5tsVcWmZe8-20" value="GPIO6" style="rounded=0;whiteSpace=wrap;html=1;align=right;spacingTop=0;spacingRight=3;fillColor=none;" vertex="1" parent="1">
          <mxGeometry x="-700" y="420" width="160" height="20" as="geometry" />
        </mxCell>
        <mxCell id="_4XBoN6raB5tsVcWmZe8-21" value="GPIO13" style="rounded=0;whiteSpace=wrap;html=1;align=right;spacingTop=0;spacingRight=3;fillColor=none;" vertex="1" parent="1">
          <mxGeometry x="-700" y="440" width="160" height="20" as="geometry" />
        </mxCell>
        <mxCell id="_4XBoN6raB5tsVcWmZe8-22" value="GPIO19" style="rounded=0;whiteSpace=wrap;html=1;align=right;spacingTop=0;spacingRight=3;fillColor=none;" vertex="1" parent="1">
          <mxGeometry x="-700" y="460" width="160" height="20" as="geometry" />
        </mxCell>
        <mxCell id="_4XBoN6raB5tsVcWmZe8-23" value="GPIO26" style="rounded=0;whiteSpace=wrap;html=1;align=right;spacingTop=0;spacingRight=3;fillColor=none;" vertex="1" parent="1">
          <mxGeometry x="-700" y="480" width="160" height="20" as="geometry" />
        </mxCell>
        <mxCell id="_4XBoN6raB5tsVcWmZe8-24" value="GND" style="rounded=0;whiteSpace=wrap;html=1;align=right;spacingTop=0;spacingRight=3;fillColor=none;" vertex="1" parent="1">
          <mxGeometry x="-700" y="500" width="160" height="20" as="geometry" />
        </mxCell>
        <mxCell id="_4XBoN6raB5tsVcWmZe8-25" value="GND" style="rounded=0;whiteSpace=wrap;html=1;spacingLeft=3;align=left;fillColor=none;" vertex="1" parent="1">
          <mxGeometry x="-380" y="240" width="160" height="20" as="geometry" />
        </mxCell>
        <mxCell id="_4XBoN6raB5tsVcWmZe8-26" value="GPIO23 (GPIO_GEN4)" style="rounded=0;whiteSpace=wrap;html=1;spacingLeft=3;align=left;fillColor=none;" vertex="1" parent="1">
          <mxGeometry x="-380" y="260" width="160" height="20" as="geometry" />
        </mxCell>
        <mxCell id="_4XBoN6raB5tsVcWmZe8-27" value="GPIO24 (GPIO_GEN5)" style="rounded=0;whiteSpace=wrap;html=1;spacingLeft=3;align=left;fillColor=none;" vertex="1" parent="1">
          <mxGeometry x="-380" y="280" width="160" height="20" as="geometry" />
        </mxCell>
        <mxCell id="_4XBoN6raB5tsVcWmZe8-28" value="GND" style="rounded=0;whiteSpace=wrap;html=1;spacingLeft=3;align=left;fillColor=none;" vertex="1" parent="1">
          <mxGeometry x="-380" y="300" width="160" height="20" as="geometry" />
        </mxCell>
        <mxCell id="_4XBoN6raB5tsVcWmZe8-29" value="GPIO25 (GPIO_GEN6)" style="rounded=0;whiteSpace=wrap;html=1;spacingLeft=3;align=left;fillColor=none;" vertex="1" parent="1">
          <mxGeometry x="-380" y="320" width="160" height="20" as="geometry" />
        </mxCell>
        <mxCell id="_4XBoN6raB5tsVcWmZe8-30" value="GPIO8 (SPI_CE0_N)" style="rounded=0;whiteSpace=wrap;html=1;spacingLeft=3;align=left;fillColor=none;" vertex="1" parent="1">
          <mxGeometry x="-380" y="340" width="160" height="20" as="geometry" />
        </mxCell>
        <mxCell id="_4XBoN6raB5tsVcWmZe8-31" value="GPIO7 (SPI_CE1_N)" style="rounded=0;whiteSpace=wrap;html=1;spacingLeft=3;align=left;fillColor=none;" vertex="1" parent="1">
          <mxGeometry x="-380" y="360" width="160" height="20" as="geometry" />
        </mxCell>
        <mxCell id="_4XBoN6raB5tsVcWmZe8-32" value="ID_SC (I2C EEPROM)" style="rounded=0;whiteSpace=wrap;html=1;spacingLeft=3;align=left;fillColor=none;" vertex="1" parent="1">
          <mxGeometry x="-380" y="380" width="160" height="20" as="geometry" />
        </mxCell>
        <mxCell id="_4XBoN6raB5tsVcWmZe8-33" value="GND" style="rounded=0;whiteSpace=wrap;html=1;spacingLeft=3;align=left;fillColor=none;" vertex="1" parent="1">
          <mxGeometry x="-380" y="400" width="160" height="20" as="geometry" />
        </mxCell>
        <mxCell id="_4XBoN6raB5tsVcWmZe8-34" value="GPIO12" style="rounded=0;whiteSpace=wrap;html=1;spacingLeft=3;align=left;fillColor=none;" vertex="1" parent="1">
          <mxGeometry x="-380" y="420" width="160" height="20" as="geometry" />
        </mxCell>
        <mxCell id="_4XBoN6raB5tsVcWmZe8-35" value="GND" style="rounded=0;whiteSpace=wrap;html=1;spacingLeft=3;align=left;fillColor=none;" vertex="1" parent="1">
          <mxGeometry x="-380" y="440" width="160" height="20" as="geometry" />
        </mxCell>
        <mxCell id="_4XBoN6raB5tsVcWmZe8-36" value="GPIO16" style="rounded=0;whiteSpace=wrap;html=1;spacingLeft=3;align=left;fillColor=none;" vertex="1" parent="1">
          <mxGeometry x="-380" y="460" width="160" height="20" as="geometry" />
        </mxCell>
        <mxCell id="_4XBoN6raB5tsVcWmZe8-37" value="GPIO20" style="rounded=0;whiteSpace=wrap;html=1;spacingLeft=3;align=left;fillColor=none;" vertex="1" parent="1">
          <mxGeometry x="-380" y="480" width="160" height="20" as="geometry" />
        </mxCell>
        <mxCell id="_4XBoN6raB5tsVcWmZe8-38" value="GPIO21" style="rounded=0;whiteSpace=wrap;html=1;spacingLeft=3;align=left;fillColor=none;" vertex="1" parent="1">
          <mxGeometry x="-380" y="500" width="160" height="20" as="geometry" />
        </mxCell>
        <mxCell id="_4XBoN6raB5tsVcWmZe8-39" value="5V PWR" style="rounded=0;whiteSpace=wrap;html=1;spacingLeft=3;align=left;fillColor=none;" vertex="1" parent="1">
          <mxGeometry x="-380" y="140" width="160" height="20" as="geometry" />
        </mxCell>
        <mxCell id="_4XBoN6raB5tsVcWmZe8-40" value="GND" style="rounded=0;whiteSpace=wrap;html=1;spacingLeft=3;align=left;fillColor=none;" vertex="1" parent="1">
          <mxGeometry x="-380" y="160" width="160" height="20" as="geometry" />
        </mxCell>
        <mxCell id="_4XBoN6raB5tsVcWmZe8-41" value="GIPO14 (UART_TXD0)" style="rounded=0;whiteSpace=wrap;html=1;spacingLeft=3;align=left;fillColor=none;" vertex="1" parent="1">
          <mxGeometry x="-380" y="180" width="160" height="20" as="geometry" />
        </mxCell>
        <mxCell id="_4XBoN6raB5tsVcWmZe8-42" value="GPIO15 (UART_RXD0)" style="rounded=0;whiteSpace=wrap;html=1;spacingLeft=3;align=left;fillColor=none;" vertex="1" parent="1">
          <mxGeometry x="-380" y="200" width="160" height="20" as="geometry" />
        </mxCell>
        <mxCell id="_4XBoN6raB5tsVcWmZe8-43" value="GPIO18 (GPIO_GEN1)" style="rounded=0;whiteSpace=wrap;html=1;spacingLeft=3;align=left;fillColor=none;" vertex="1" parent="1">
          <mxGeometry x="-380" y="220" width="160" height="20" as="geometry" />
        </mxCell>
        <mxCell id="_4XBoN6raB5tsVcWmZe8-44" value="5V PWR" style="rounded=0;whiteSpace=wrap;html=1;spacingLeft=3;align=left;fillColor=none;" vertex="1" parent="1">
          <mxGeometry x="-380" y="120" width="160" height="20" as="geometry" />
        </mxCell>
        <mxCell id="_4XBoN6raB5tsVcWmZe8-45" value="1" style="rounded=0;whiteSpace=wrap;html=1;fillColor=none;" vertex="1" parent="1">
          <mxGeometry x="-540" y="120" width="20" height="20" as="geometry" />
        </mxCell>
        <mxCell id="_4XBoN6raB5tsVcWmZe8-46" value="" style="rounded=0;whiteSpace=wrap;html=1;fillColor=none;" vertex="1" parent="1">
          <mxGeometry x="-480" y="120" width="20" height="20" as="geometry" />
        </mxCell>
        <mxCell id="_4XBoN6raB5tsVcWmZe8-47" value="" style="rounded=0;whiteSpace=wrap;html=1;fillColor=none;" vertex="1" parent="1">
          <mxGeometry x="-460" y="120" width="20" height="20" as="geometry" />
        </mxCell>
        <mxCell id="_4XBoN6raB5tsVcWmZe8-48" value="2" style="rounded=0;whiteSpace=wrap;html=1;fillColor=none;" vertex="1" parent="1">
          <mxGeometry x="-400" y="120" width="20" height="20" as="geometry" />
        </mxCell>
        <mxCell id="_4XBoN6raB5tsVcWmZe8-49" value="3" style="rounded=0;whiteSpace=wrap;html=1;fillColor=none;" vertex="1" parent="1">
          <mxGeometry x="-540" y="140" width="20" height="20" as="geometry" />
        </mxCell>
        <mxCell id="_4XBoN6raB5tsVcWmZe8-50" value="" style="rounded=0;whiteSpace=wrap;html=1;fillColor=none;" vertex="1" parent="1">
          <mxGeometry x="-480" y="140" width="20" height="20" as="geometry" />
        </mxCell>
        <mxCell id="_4XBoN6raB5tsVcWmZe8-51" value="" style="rounded=0;whiteSpace=wrap;html=1;fillColor=none;" vertex="1" parent="1">
          <mxGeometry x="-460" y="140" width="20" height="20" as="geometry" />
        </mxCell>
        <mxCell id="_4XBoN6raB5tsVcWmZe8-52" value="4" style="rounded=0;whiteSpace=wrap;html=1;fillColor=none;" vertex="1" parent="1">
          <mxGeometry x="-400" y="140" width="20" height="20" as="geometry" />
        </mxCell>
        <mxCell id="_4XBoN6raB5tsVcWmZe8-53" value="5" style="rounded=0;whiteSpace=wrap;html=1;fillColor=none;" vertex="1" parent="1">
          <mxGeometry x="-540" y="160" width="20" height="20" as="geometry" />
        </mxCell>
        <mxCell id="_4XBoN6raB5tsVcWmZe8-54" value="" style="rounded=0;whiteSpace=wrap;html=1;fillColor=none;" vertex="1" parent="1">
          <mxGeometry x="-480" y="160" width="20" height="20" as="geometry" />
        </mxCell>
        <mxCell id="_4XBoN6raB5tsVcWmZe8-55" value="" style="rounded=0;whiteSpace=wrap;html=1;fillColor=none;" vertex="1" parent="1">
          <mxGeometry x="-460" y="160" width="20" height="20" as="geometry" />
        </mxCell>
        <mxCell id="_4XBoN6raB5tsVcWmZe8-56" value="6" style="rounded=0;whiteSpace=wrap;html=1;fillColor=none;" vertex="1" parent="1">
          <mxGeometry x="-400" y="160" width="20" height="20" as="geometry" />
        </mxCell>
        <mxCell id="_4XBoN6raB5tsVcWmZe8-57" value="7" style="rounded=0;whiteSpace=wrap;html=1;fillColor=none;" vertex="1" parent="1">
          <mxGeometry x="-540" y="180" width="20" height="20" as="geometry" />
        </mxCell>
        <mxCell id="_4XBoN6raB5tsVcWmZe8-58" value="" style="rounded=0;whiteSpace=wrap;html=1;fillColor=none;" vertex="1" parent="1">
          <mxGeometry x="-480" y="180" width="20" height="20" as="geometry" />
        </mxCell>
        <mxCell id="_4XBoN6raB5tsVcWmZe8-59" value="" style="rounded=0;whiteSpace=wrap;html=1;fillColor=none;" vertex="1" parent="1">
          <mxGeometry x="-460" y="180" width="20" height="20" as="geometry" />
        </mxCell>
        <mxCell id="_4XBoN6raB5tsVcWmZe8-60" value="8" style="rounded=0;whiteSpace=wrap;html=1;fillColor=none;" vertex="1" parent="1">
          <mxGeometry x="-400" y="180" width="20" height="20" as="geometry" />
        </mxCell>
        <mxCell id="_4XBoN6raB5tsVcWmZe8-61" value="9" style="rounded=0;whiteSpace=wrap;html=1;fillColor=none;" vertex="1" parent="1">
          <mxGeometry x="-540" y="200" width="20" height="20" as="geometry" />
        </mxCell>
        <mxCell id="_4XBoN6raB5tsVcWmZe8-62" value="" style="rounded=0;whiteSpace=wrap;html=1;fillColor=none;" vertex="1" parent="1">
          <mxGeometry x="-480" y="200" width="20" height="20" as="geometry" />
        </mxCell>
        <mxCell id="_4XBoN6raB5tsVcWmZe8-63" value="" style="rounded=0;whiteSpace=wrap;html=1;fillColor=none;" vertex="1" parent="1">
          <mxGeometry x="-460" y="200" width="20" height="20" as="geometry" />
        </mxCell>
        <mxCell id="_4XBoN6raB5tsVcWmZe8-64" value="10" style="rounded=0;whiteSpace=wrap;html=1;fillColor=none;" vertex="1" parent="1">
          <mxGeometry x="-400" y="200" width="20" height="20" as="geometry" />
        </mxCell>
        <mxCell id="_4XBoN6raB5tsVcWmZe8-65" value="11" style="rounded=0;whiteSpace=wrap;html=1;fillColor=none;" vertex="1" parent="1">
          <mxGeometry x="-540" y="220" width="20" height="20" as="geometry" />
        </mxCell>
        <mxCell id="_4XBoN6raB5tsVcWmZe8-66" value="" style="rounded=0;whiteSpace=wrap;html=1;fillColor=none;" vertex="1" parent="1">
          <mxGeometry x="-480" y="220" width="20" height="20" as="geometry" />
        </mxCell>
        <mxCell id="_4XBoN6raB5tsVcWmZe8-67" value="" style="rounded=0;whiteSpace=wrap;html=1;fillColor=none;" vertex="1" parent="1">
          <mxGeometry x="-460" y="220" width="20" height="20" as="geometry" />
        </mxCell>
        <mxCell id="_4XBoN6raB5tsVcWmZe8-68" value="12" style="rounded=0;whiteSpace=wrap;html=1;fillColor=none;" vertex="1" parent="1">
          <mxGeometry x="-400" y="220" width="20" height="20" as="geometry" />
        </mxCell>
        <mxCell id="_4XBoN6raB5tsVcWmZe8-69" value="13" style="rounded=0;whiteSpace=wrap;html=1;fillColor=none;" vertex="1" parent="1">
          <mxGeometry x="-540" y="240" width="20" height="20" as="geometry" />
        </mxCell>
        <mxCell id="_4XBoN6raB5tsVcWmZe8-70" value="" style="rounded=0;whiteSpace=wrap;html=1;fillColor=none;" vertex="1" parent="1">
          <mxGeometry x="-480" y="240" width="20" height="20" as="geometry" />
        </mxCell>
        <mxCell id="_4XBoN6raB5tsVcWmZe8-71" value="" style="rounded=0;whiteSpace=wrap;html=1;fillColor=none;" vertex="1" parent="1">
          <mxGeometry x="-460" y="240" width="20" height="20" as="geometry" />
        </mxCell>
        <mxCell id="_4XBoN6raB5tsVcWmZe8-72" value="14" style="rounded=0;whiteSpace=wrap;html=1;fillColor=none;" vertex="1" parent="1">
          <mxGeometry x="-400" y="240" width="20" height="20" as="geometry" />
        </mxCell>
        <mxCell id="_4XBoN6raB5tsVcWmZe8-73" value="15" style="rounded=0;whiteSpace=wrap;html=1;fillColor=none;" vertex="1" parent="1">
          <mxGeometry x="-540" y="260" width="20" height="20" as="geometry" />
        </mxCell>
        <mxCell id="_4XBoN6raB5tsVcWmZe8-74" value="" style="rounded=0;whiteSpace=wrap;html=1;fillColor=none;" vertex="1" parent="1">
          <mxGeometry x="-480" y="260" width="20" height="20" as="geometry" />
        </mxCell>
        <mxCell id="_4XBoN6raB5tsVcWmZe8-75" value="" style="rounded=0;whiteSpace=wrap;html=1;fillColor=none;" vertex="1" parent="1">
          <mxGeometry x="-460" y="260" width="20" height="20" as="geometry" />
        </mxCell>
        <mxCell id="_4XBoN6raB5tsVcWmZe8-76" value="16" style="rounded=0;whiteSpace=wrap;html=1;fillColor=none;" vertex="1" parent="1">
          <mxGeometry x="-400" y="260" width="20" height="20" as="geometry" />
        </mxCell>
        <mxCell id="_4XBoN6raB5tsVcWmZe8-77" value="17" style="rounded=0;whiteSpace=wrap;html=1;fillColor=none;" vertex="1" parent="1">
          <mxGeometry x="-540" y="280" width="20" height="20" as="geometry" />
        </mxCell>
        <mxCell id="_4XBoN6raB5tsVcWmZe8-78" value="" style="rounded=0;whiteSpace=wrap;html=1;fillColor=none;" vertex="1" parent="1">
          <mxGeometry x="-480" y="280" width="20" height="20" as="geometry" />
        </mxCell>
        <mxCell id="_4XBoN6raB5tsVcWmZe8-79" value="" style="rounded=0;whiteSpace=wrap;html=1;fillColor=none;" vertex="1" parent="1">
          <mxGeometry x="-460" y="280" width="20" height="20" as="geometry" />
        </mxCell>
        <mxCell id="_4XBoN6raB5tsVcWmZe8-80" value="18" style="rounded=0;whiteSpace=wrap;html=1;fillColor=none;" vertex="1" parent="1">
          <mxGeometry x="-400" y="280" width="20" height="20" as="geometry" />
        </mxCell>
        <mxCell id="_4XBoN6raB5tsVcWmZe8-81" value="19" style="rounded=0;whiteSpace=wrap;html=1;fillColor=none;" vertex="1" parent="1">
          <mxGeometry x="-540" y="300" width="20" height="20" as="geometry" />
        </mxCell>
        <mxCell id="_4XBoN6raB5tsVcWmZe8-82" value="" style="rounded=0;whiteSpace=wrap;html=1;fillColor=none;" vertex="1" parent="1">
          <mxGeometry x="-480" y="300" width="20" height="20" as="geometry" />
        </mxCell>
        <mxCell id="_4XBoN6raB5tsVcWmZe8-83" value="" style="rounded=0;whiteSpace=wrap;html=1;fillColor=none;" vertex="1" parent="1">
          <mxGeometry x="-460" y="300" width="20" height="20" as="geometry" />
        </mxCell>
        <mxCell id="_4XBoN6raB5tsVcWmZe8-84" value="20" style="rounded=0;whiteSpace=wrap;html=1;fillColor=none;" vertex="1" parent="1">
          <mxGeometry x="-400" y="300" width="20" height="20" as="geometry" />
        </mxCell>
        <mxCell id="_4XBoN6raB5tsVcWmZe8-85" value="21" style="rounded=0;whiteSpace=wrap;html=1;fillColor=none;" vertex="1" parent="1">
          <mxGeometry x="-540" y="320" width="20" height="20" as="geometry" />
        </mxCell>
        <mxCell id="_4XBoN6raB5tsVcWmZe8-86" value="" style="rounded=0;whiteSpace=wrap;html=1;fillColor=none;" vertex="1" parent="1">
          <mxGeometry x="-480" y="320" width="20" height="20" as="geometry" />
        </mxCell>
        <mxCell id="_4XBoN6raB5tsVcWmZe8-87" value="" style="rounded=0;whiteSpace=wrap;html=1;fillColor=none;" vertex="1" parent="1">
          <mxGeometry x="-460" y="320" width="20" height="20" as="geometry" />
        </mxCell>
        <mxCell id="_4XBoN6raB5tsVcWmZe8-88" value="22" style="rounded=0;whiteSpace=wrap;html=1;fillColor=none;" vertex="1" parent="1">
          <mxGeometry x="-400" y="320" width="20" height="20" as="geometry" />
        </mxCell>
        <mxCell id="_4XBoN6raB5tsVcWmZe8-89" value="23" style="rounded=0;whiteSpace=wrap;html=1;fillColor=none;" vertex="1" parent="1">
          <mxGeometry x="-540" y="340" width="20" height="20" as="geometry" />
        </mxCell>
        <mxCell id="_4XBoN6raB5tsVcWmZe8-90" value="" style="rounded=0;whiteSpace=wrap;html=1;fillColor=none;" vertex="1" parent="1">
          <mxGeometry x="-480" y="340" width="20" height="20" as="geometry" />
        </mxCell>
        <mxCell id="_4XBoN6raB5tsVcWmZe8-91" value="" style="rounded=0;whiteSpace=wrap;html=1;fillColor=none;" vertex="1" parent="1">
          <mxGeometry x="-460" y="340" width="20" height="20" as="geometry" />
        </mxCell>
        <mxCell id="_4XBoN6raB5tsVcWmZe8-92" value="24" style="rounded=0;whiteSpace=wrap;html=1;fillColor=none;" vertex="1" parent="1">
          <mxGeometry x="-400" y="340" width="20" height="20" as="geometry" />
        </mxCell>
        <mxCell id="_4XBoN6raB5tsVcWmZe8-93" value="25" style="rounded=0;whiteSpace=wrap;html=1;fillColor=none;" vertex="1" parent="1">
          <mxGeometry x="-540" y="360" width="20" height="20" as="geometry" />
        </mxCell>
        <mxCell id="_4XBoN6raB5tsVcWmZe8-94" value="" style="rounded=0;whiteSpace=wrap;html=1;fillColor=none;" vertex="1" parent="1">
          <mxGeometry x="-480" y="360" width="20" height="20" as="geometry" />
        </mxCell>
        <mxCell id="_4XBoN6raB5tsVcWmZe8-95" value="" style="rounded=0;whiteSpace=wrap;html=1;fillColor=none;" vertex="1" parent="1">
          <mxGeometry x="-460" y="360" width="20" height="20" as="geometry" />
        </mxCell>
        <mxCell id="_4XBoN6raB5tsVcWmZe8-96" value="26" style="rounded=0;whiteSpace=wrap;html=1;fillColor=none;" vertex="1" parent="1">
          <mxGeometry x="-400" y="360" width="20" height="20" as="geometry" />
        </mxCell>
        <mxCell id="_4XBoN6raB5tsVcWmZe8-97" value="27" style="rounded=0;whiteSpace=wrap;html=1;fillColor=none;" vertex="1" parent="1">
          <mxGeometry x="-540" y="380" width="20" height="20" as="geometry" />
        </mxCell>
        <mxCell id="_4XBoN6raB5tsVcWmZe8-98" value="" style="rounded=0;whiteSpace=wrap;html=1;fillColor=none;" vertex="1" parent="1">
          <mxGeometry x="-480" y="380" width="20" height="20" as="geometry" />
        </mxCell>
        <mxCell id="_4XBoN6raB5tsVcWmZe8-99" value="" style="rounded=0;whiteSpace=wrap;html=1;fillColor=none;" vertex="1" parent="1">
          <mxGeometry x="-460" y="380" width="20" height="20" as="geometry" />
        </mxCell>
        <mxCell id="_4XBoN6raB5tsVcWmZe8-100" value="28" style="rounded=0;whiteSpace=wrap;html=1;fillColor=none;" vertex="1" parent="1">
          <mxGeometry x="-400" y="380" width="20" height="20" as="geometry" />
        </mxCell>
        <mxCell id="_4XBoN6raB5tsVcWmZe8-101" value="29" style="rounded=0;whiteSpace=wrap;html=1;fillColor=none;" vertex="1" parent="1">
          <mxGeometry x="-540" y="400" width="20" height="20" as="geometry" />
        </mxCell>
        <mxCell id="_4XBoN6raB5tsVcWmZe8-102" value="" style="rounded=0;whiteSpace=wrap;html=1;fillColor=none;" vertex="1" parent="1">
          <mxGeometry x="-480" y="400" width="20" height="20" as="geometry" />
        </mxCell>
        <mxCell id="_4XBoN6raB5tsVcWmZe8-103" value="" style="rounded=0;whiteSpace=wrap;html=1;fillColor=none;" vertex="1" parent="1">
          <mxGeometry x="-460" y="400" width="20" height="20" as="geometry" />
        </mxCell>
        <mxCell id="_4XBoN6raB5tsVcWmZe8-104" value="30" style="rounded=0;whiteSpace=wrap;html=1;fillColor=none;" vertex="1" parent="1">
          <mxGeometry x="-400" y="400" width="20" height="20" as="geometry" />
        </mxCell>
        <mxCell id="_4XBoN6raB5tsVcWmZe8-105" value="31" style="rounded=0;whiteSpace=wrap;html=1;fillColor=none;" vertex="1" parent="1">
          <mxGeometry x="-540" y="420" width="20" height="20" as="geometry" />
        </mxCell>
        <mxCell id="_4XBoN6raB5tsVcWmZe8-106" value="" style="rounded=0;whiteSpace=wrap;html=1;fillColor=none;" vertex="1" parent="1">
          <mxGeometry x="-480" y="420" width="20" height="20" as="geometry" />
        </mxCell>
        <mxCell id="_4XBoN6raB5tsVcWmZe8-107" value="" style="rounded=0;whiteSpace=wrap;html=1;fillColor=none;" vertex="1" parent="1">
          <mxGeometry x="-460" y="420" width="20" height="20" as="geometry" />
        </mxCell>
        <mxCell id="_4XBoN6raB5tsVcWmZe8-108" value="32" style="rounded=0;whiteSpace=wrap;html=1;fillColor=none;" vertex="1" parent="1">
          <mxGeometry x="-400" y="420" width="20" height="20" as="geometry" />
        </mxCell>
        <mxCell id="_4XBoN6raB5tsVcWmZe8-109" value="33" style="rounded=0;whiteSpace=wrap;html=1;fillColor=none;" vertex="1" parent="1">
          <mxGeometry x="-540" y="440" width="20" height="20" as="geometry" />
        </mxCell>
        <mxCell id="_4XBoN6raB5tsVcWmZe8-110" value="" style="rounded=0;whiteSpace=wrap;html=1;fillColor=none;" vertex="1" parent="1">
          <mxGeometry x="-480" y="440" width="20" height="20" as="geometry" />
        </mxCell>
        <mxCell id="_4XBoN6raB5tsVcWmZe8-111" value="" style="rounded=0;whiteSpace=wrap;html=1;fillColor=none;" vertex="1" parent="1">
          <mxGeometry x="-460" y="440" width="20" height="20" as="geometry" />
        </mxCell>
        <mxCell id="_4XBoN6raB5tsVcWmZe8-112" value="34" style="rounded=0;whiteSpace=wrap;html=1;fillColor=none;" vertex="1" parent="1">
          <mxGeometry x="-400" y="440" width="20" height="20" as="geometry" />
        </mxCell>
        <mxCell id="_4XBoN6raB5tsVcWmZe8-113" value="35" style="rounded=0;whiteSpace=wrap;html=1;fillColor=none;" vertex="1" parent="1">
          <mxGeometry x="-540" y="460" width="20" height="20" as="geometry" />
        </mxCell>
        <mxCell id="_4XBoN6raB5tsVcWmZe8-114" value="" style="rounded=0;whiteSpace=wrap;html=1;fillColor=none;" vertex="1" parent="1">
          <mxGeometry x="-480" y="460" width="20" height="20" as="geometry" />
        </mxCell>
        <mxCell id="_4XBoN6raB5tsVcWmZe8-115" value="" style="rounded=0;whiteSpace=wrap;html=1;fillColor=none;" vertex="1" parent="1">
          <mxGeometry x="-460" y="460" width="20" height="20" as="geometry" />
        </mxCell>
        <mxCell id="_4XBoN6raB5tsVcWmZe8-116" value="36" style="rounded=0;whiteSpace=wrap;html=1;fillColor=none;" vertex="1" parent="1">
          <mxGeometry x="-400" y="460" width="20" height="20" as="geometry" />
        </mxCell>
        <mxCell id="_4XBoN6raB5tsVcWmZe8-117" value="37" style="rounded=0;whiteSpace=wrap;html=1;fillColor=none;" vertex="1" parent="1">
          <mxGeometry x="-540" y="480" width="20" height="20" as="geometry" />
        </mxCell>
        <mxCell id="_4XBoN6raB5tsVcWmZe8-118" value="" style="rounded=0;whiteSpace=wrap;html=1;fillColor=none;" vertex="1" parent="1">
          <mxGeometry x="-480" y="480" width="20" height="20" as="geometry" />
        </mxCell>
        <mxCell id="_4XBoN6raB5tsVcWmZe8-119" value="" style="rounded=0;whiteSpace=wrap;html=1;fillColor=none;" vertex="1" parent="1">
          <mxGeometry x="-460" y="480" width="20" height="20" as="geometry" />
        </mxCell>
        <mxCell id="_4XBoN6raB5tsVcWmZe8-120" value="38" style="rounded=0;whiteSpace=wrap;html=1;fillColor=none;" vertex="1" parent="1">
          <mxGeometry x="-400" y="480" width="20" height="20" as="geometry" />
        </mxCell>
        <mxCell id="_4XBoN6raB5tsVcWmZe8-121" value="39" style="rounded=0;whiteSpace=wrap;html=1;fillColor=none;" vertex="1" parent="1">
          <mxGeometry x="-540" y="500" width="20" height="20" as="geometry" />
        </mxCell>
        <mxCell id="_4XBoN6raB5tsVcWmZe8-122" value="" style="rounded=0;whiteSpace=wrap;html=1;fillColor=none;" vertex="1" parent="1">
          <mxGeometry x="-480" y="500" width="20" height="20" as="geometry" />
        </mxCell>
        <mxCell id="_4XBoN6raB5tsVcWmZe8-123" value="" style="rounded=0;whiteSpace=wrap;html=1;fillColor=none;" vertex="1" parent="1">
          <mxGeometry x="-460" y="500" width="20" height="20" as="geometry" />
        </mxCell>
        <mxCell id="_4XBoN6raB5tsVcWmZe8-124" value="40" style="rounded=0;whiteSpace=wrap;html=1;fillColor=none;" vertex="1" parent="1">
          <mxGeometry x="-400" y="500" width="20" height="20" as="geometry" />
        </mxCell>
        <mxCell id="_4XBoN6raB5tsVcWmZe8-126" value="" style="ellipse;whiteSpace=wrap;html=1;fillColor=none;" vertex="1" parent="1">
          <mxGeometry x="-475" y="125" width="10" height="10" as="geometry" />
        </mxCell>
        <mxCell id="_4XBoN6raB5tsVcWmZe8-127" value="" style="ellipse;whiteSpace=wrap;html=1;fillColor=#BF616A;" vertex="1" parent="1">
          <mxGeometry x="-455" y="125" width="10" height="10" as="geometry" />
        </mxCell>
        <mxCell id="_4XBoN6raB5tsVcWmZe8-128" value="" style="ellipse;whiteSpace=wrap;html=1;fillColor=#EBCB8B;" vertex="1" parent="1">
          <mxGeometry x="-475" y="145" width="10" height="10" as="geometry" />
        </mxCell>
        <mxCell id="_4XBoN6raB5tsVcWmZe8-129" value="" style="ellipse;whiteSpace=wrap;html=1;fillColor=none;" vertex="1" parent="1">
          <mxGeometry x="-455" y="145" width="10" height="10" as="geometry" />
        </mxCell>
        <mxCell id="_4XBoN6raB5tsVcWmZe8-130" value="" style="ellipse;whiteSpace=wrap;html=1;fillColor=#A3BE8C;" vertex="1" parent="1">
          <mxGeometry x="-475" y="165" width="10" height="10" as="geometry" />
        </mxCell>
        <mxCell id="_4XBoN6raB5tsVcWmZe8-131" value="" style="ellipse;whiteSpace=wrap;html=1;fillColor=#FFFFFF;" vertex="1" parent="1">
          <mxGeometry x="-455" y="165" width="10" height="10" as="geometry" />
        </mxCell>
        <mxCell id="_4XBoN6raB5tsVcWmZe8-132" value="" style="ellipse;whiteSpace=wrap;html=1;fillColor=none;" vertex="1" parent="1">
          <mxGeometry x="-475" y="185" width="10" height="10" as="geometry" />
        </mxCell>
        <mxCell id="_4XBoN6raB5tsVcWmZe8-133" value="" style="ellipse;whiteSpace=wrap;html=1;fillColor=none;" vertex="1" parent="1">
          <mxGeometry x="-455" y="185" width="10" height="10" as="geometry" />
        </mxCell>
        <mxCell id="_4XBoN6raB5tsVcWmZe8-150" value="" style="ellipse;whiteSpace=wrap;html=1;fillColor=none;" vertex="1" parent="1">
          <mxGeometry x="-475" y="205" width="10" height="10" as="geometry" />
        </mxCell>
        <mxCell id="_4XBoN6raB5tsVcWmZe8-151" value="" style="ellipse;whiteSpace=wrap;html=1;fillColor=none;" vertex="1" parent="1">
          <mxGeometry x="-455" y="205" width="10" height="10" as="geometry" />
        </mxCell>
        <mxCell id="_4XBoN6raB5tsVcWmZe8-152" value="" style="ellipse;whiteSpace=wrap;html=1;fillColor=none;" vertex="1" parent="1">
          <mxGeometry x="-475" y="225" width="10" height="10" as="geometry" />
        </mxCell>
        <mxCell id="_4XBoN6raB5tsVcWmZe8-153" value="" style="ellipse;whiteSpace=wrap;html=1;fillColor=none;" vertex="1" parent="1">
          <mxGeometry x="-455" y="225" width="10" height="10" as="geometry" />
        </mxCell>
        <mxCell id="_4XBoN6raB5tsVcWmZe8-154" value="" style="ellipse;whiteSpace=wrap;html=1;fillColor=none;" vertex="1" parent="1">
          <mxGeometry x="-475" y="245" width="10" height="10" as="geometry" />
        </mxCell>
        <mxCell id="_4XBoN6raB5tsVcWmZe8-155" value="" style="ellipse;whiteSpace=wrap;html=1;fillColor=none;" vertex="1" parent="1">
          <mxGeometry x="-455" y="245" width="10" height="10" as="geometry" />
        </mxCell>
        <mxCell id="_4XBoN6raB5tsVcWmZe8-156" value="" style="ellipse;whiteSpace=wrap;html=1;fillColor=none;" vertex="1" parent="1">
          <mxGeometry x="-475" y="265" width="10" height="10" as="geometry" />
        </mxCell>
        <mxCell id="_4XBoN6raB5tsVcWmZe8-157" value="" style="ellipse;whiteSpace=wrap;html=1;fillColor=none;" vertex="1" parent="1">
          <mxGeometry x="-455" y="265" width="10" height="10" as="geometry" />
        </mxCell>
        <mxCell id="_4XBoN6raB5tsVcWmZe8-158" value="" style="ellipse;whiteSpace=wrap;html=1;fillColor=none;" vertex="1" parent="1">
          <mxGeometry x="-475" y="285" width="10" height="10" as="geometry" />
        </mxCell>
        <mxCell id="_4XBoN6raB5tsVcWmZe8-159" value="" style="ellipse;whiteSpace=wrap;html=1;fillColor=none;" vertex="1" parent="1">
          <mxGeometry x="-455" y="285" width="10" height="10" as="geometry" />
        </mxCell>
        <mxCell id="_4XBoN6raB5tsVcWmZe8-160" value="" style="ellipse;whiteSpace=wrap;html=1;fillColor=none;" vertex="1" parent="1">
          <mxGeometry x="-475" y="305" width="10" height="10" as="geometry" />
        </mxCell>
        <mxCell id="_4XBoN6raB5tsVcWmZe8-161" value="" style="ellipse;whiteSpace=wrap;html=1;fillColor=none;" vertex="1" parent="1">
          <mxGeometry x="-455" y="305" width="10" height="10" as="geometry" />
        </mxCell>
        <mxCell id="_4XBoN6raB5tsVcWmZe8-162" value="" style="ellipse;whiteSpace=wrap;html=1;fillColor=none;" vertex="1" parent="1">
          <mxGeometry x="-475" y="325" width="10" height="10" as="geometry" />
        </mxCell>
        <mxCell id="_4XBoN6raB5tsVcWmZe8-163" value="" style="ellipse;whiteSpace=wrap;html=1;fillColor=none;" vertex="1" parent="1">
          <mxGeometry x="-455" y="325" width="10" height="10" as="geometry" />
        </mxCell>
        <mxCell id="_4XBoN6raB5tsVcWmZe8-164" value="" style="ellipse;whiteSpace=wrap;html=1;fillColor=none;" vertex="1" parent="1">
          <mxGeometry x="-475" y="345" width="10" height="10" as="geometry" />
        </mxCell>
        <mxCell id="_4XBoN6raB5tsVcWmZe8-165" value="" style="ellipse;whiteSpace=wrap;html=1;fillColor=none;" vertex="1" parent="1">
          <mxGeometry x="-455" y="345" width="10" height="10" as="geometry" />
        </mxCell>
        <mxCell id="_4XBoN6raB5tsVcWmZe8-166" value="" style="ellipse;whiteSpace=wrap;html=1;fillColor=none;" vertex="1" parent="1">
          <mxGeometry x="-475" y="365" width="10" height="10" as="geometry" />
        </mxCell>
        <mxCell id="_4XBoN6raB5tsVcWmZe8-167" value="" style="ellipse;whiteSpace=wrap;html=1;fillColor=none;" vertex="1" parent="1">
          <mxGeometry x="-455" y="365" width="10" height="10" as="geometry" />
        </mxCell>
        <mxCell id="_4XBoN6raB5tsVcWmZe8-168" value="" style="ellipse;whiteSpace=wrap;html=1;fillColor=none;" vertex="1" parent="1">
          <mxGeometry x="-475" y="385" width="10" height="10" as="geometry" />
        </mxCell>
        <mxCell id="_4XBoN6raB5tsVcWmZe8-169" value="" style="ellipse;whiteSpace=wrap;html=1;fillColor=none;" vertex="1" parent="1">
          <mxGeometry x="-455" y="385" width="10" height="10" as="geometry" />
        </mxCell>
        <mxCell id="_4XBoN6raB5tsVcWmZe8-170" value="" style="ellipse;whiteSpace=wrap;html=1;fillColor=none;" vertex="1" parent="1">
          <mxGeometry x="-475" y="405" width="10" height="10" as="geometry" />
        </mxCell>
        <mxCell id="_4XBoN6raB5tsVcWmZe8-171" value="" style="ellipse;whiteSpace=wrap;html=1;fillColor=none;" vertex="1" parent="1">
          <mxGeometry x="-455" y="405" width="10" height="10" as="geometry" />
        </mxCell>
        <mxCell id="_4XBoN6raB5tsVcWmZe8-172" value="" style="ellipse;whiteSpace=wrap;html=1;fillColor=none;" vertex="1" parent="1">
          <mxGeometry x="-475" y="425" width="10" height="10" as="geometry" />
        </mxCell>
        <mxCell id="_4XBoN6raB5tsVcWmZe8-173" value="" style="ellipse;whiteSpace=wrap;html=1;fillColor=none;" vertex="1" parent="1">
          <mxGeometry x="-455" y="425" width="10" height="10" as="geometry" />
        </mxCell>
        <mxCell id="_4XBoN6raB5tsVcWmZe8-174" value="" style="ellipse;whiteSpace=wrap;html=1;fillColor=none;" vertex="1" parent="1">
          <mxGeometry x="-475" y="445" width="10" height="10" as="geometry" />
        </mxCell>
        <mxCell id="_4XBoN6raB5tsVcWmZe8-175" value="" style="ellipse;whiteSpace=wrap;html=1;fillColor=none;" vertex="1" parent="1">
          <mxGeometry x="-455" y="445" width="10" height="10" as="geometry" />
        </mxCell>
        <mxCell id="_4XBoN6raB5tsVcWmZe8-176" value="" style="ellipse;whiteSpace=wrap;html=1;fillColor=none;" vertex="1" parent="1">
          <mxGeometry x="-475" y="465" width="10" height="10" as="geometry" />
        </mxCell>
        <mxCell id="_4XBoN6raB5tsVcWmZe8-177" value="" style="ellipse;whiteSpace=wrap;html=1;fillColor=none;" vertex="1" parent="1">
          <mxGeometry x="-455" y="465" width="10" height="10" as="geometry" />
        </mxCell>
        <mxCell id="_4XBoN6raB5tsVcWmZe8-178" value="" style="ellipse;whiteSpace=wrap;html=1;fillColor=none;" vertex="1" parent="1">
          <mxGeometry x="-475" y="485" width="10" height="10" as="geometry" />
        </mxCell>
        <mxCell id="_4XBoN6raB5tsVcWmZe8-179" value="" style="ellipse;whiteSpace=wrap;html=1;fillColor=none;" vertex="1" parent="1">
          <mxGeometry x="-455" y="485" width="10" height="10" as="geometry" />
        </mxCell>
        <mxCell id="_4XBoN6raB5tsVcWmZe8-180" value="" style="ellipse;whiteSpace=wrap;html=1;fillColor=none;" vertex="1" parent="1">
          <mxGeometry x="-475" y="505" width="10" height="10" as="geometry" />
        </mxCell>
        <mxCell id="_4XBoN6raB5tsVcWmZe8-181" value="" style="ellipse;whiteSpace=wrap;html=1;fillColor=none;" vertex="1" parent="1">
          <mxGeometry x="-455" y="505" width="10" height="10" as="geometry" />
        </mxCell>
        <mxCell id="_4XBoN6raB5tsVcWmZe8-235" value="10" style="rounded=0;whiteSpace=wrap;html=1;fillColor=none;" vertex="1" parent="1">
          <mxGeometry x="-440" y="720" width="20" height="20" as="geometry" />
        </mxCell>
        <mxCell id="_4XBoN6raB5tsVcWmZe8-236" value="9" style="rounded=0;whiteSpace=wrap;html=1;fillColor=none;" vertex="1" parent="1">
          <mxGeometry x="-440" y="740" width="20" height="20" as="geometry" />
        </mxCell>
        <mxCell id="_4XBoN6raB5tsVcWmZe8-237" value="8" style="rounded=0;whiteSpace=wrap;html=1;fillColor=none;" vertex="1" parent="1">
          <mxGeometry x="-440" y="760" width="20" height="20" as="geometry" />
        </mxCell>
        <mxCell id="_4XBoN6raB5tsVcWmZe8-238" value="7" style="rounded=0;whiteSpace=wrap;html=1;fillColor=none;" vertex="1" parent="1">
          <mxGeometry x="-440" y="780" width="20" height="20" as="geometry" />
        </mxCell>
        <mxCell id="_4XBoN6raB5tsVcWmZe8-239" value="6" style="rounded=0;whiteSpace=wrap;html=1;fillColor=none;" vertex="1" parent="1">
          <mxGeometry x="-440" y="800" width="20" height="20" as="geometry" />
        </mxCell>
        <mxCell id="_4XBoN6raB5tsVcWmZe8-240" value="5" style="rounded=0;whiteSpace=wrap;html=1;fillColor=none;" vertex="1" parent="1">
          <mxGeometry x="-440" y="820" width="20" height="20" as="geometry" />
        </mxCell>
        <mxCell id="_4XBoN6raB5tsVcWmZe8-241" value="4" style="rounded=0;whiteSpace=wrap;html=1;fillColor=none;" vertex="1" parent="1">
          <mxGeometry x="-440" y="840" width="20" height="20" as="geometry" />
        </mxCell>
        <mxCell id="_4XBoN6raB5tsVcWmZe8-242" value="3" style="rounded=0;whiteSpace=wrap;html=1;fillColor=none;" vertex="1" parent="1">
          <mxGeometry x="-440" y="860" width="20" height="20" as="geometry" />
        </mxCell>
        <mxCell id="_4XBoN6raB5tsVcWmZe8-243" value="2" style="rounded=0;whiteSpace=wrap;html=1;fillColor=none;" vertex="1" parent="1">
          <mxGeometry x="-440" y="880" width="20" height="20" as="geometry" />
        </mxCell>
        <mxCell id="_4XBoN6raB5tsVcWmZe8-244" value="1" style="rounded=0;whiteSpace=wrap;html=1;fillColor=none;" vertex="1" parent="1">
          <mxGeometry x="-440" y="900" width="20" height="20" as="geometry" />
        </mxCell>
        <mxCell id="_4XBoN6raB5tsVcWmZe8-250" value="10" style="rounded=0;whiteSpace=wrap;html=1;fillColor=none;" vertex="1" parent="1">
          <mxGeometry x="-500" y="720" width="20" height="20" as="geometry" />
        </mxCell>
        <mxCell id="_4XBoN6raB5tsVcWmZe8-251" value="9" style="rounded=0;whiteSpace=wrap;html=1;fillColor=none;" vertex="1" parent="1">
          <mxGeometry x="-500" y="740" width="20" height="20" as="geometry" />
        </mxCell>
        <mxCell id="_4XBoN6raB5tsVcWmZe8-252" value="8" style="rounded=0;whiteSpace=wrap;html=1;fillColor=none;" vertex="1" parent="1">
          <mxGeometry x="-500" y="760" width="20" height="20" as="geometry" />
        </mxCell>
        <mxCell id="_4XBoN6raB5tsVcWmZe8-253" value="7" style="rounded=0;whiteSpace=wrap;html=1;fillColor=none;" vertex="1" parent="1">
          <mxGeometry x="-500" y="780" width="20" height="20" as="geometry" />
        </mxCell>
        <mxCell id="_4XBoN6raB5tsVcWmZe8-254" value="6" style="rounded=0;whiteSpace=wrap;html=1;fillColor=none;" vertex="1" parent="1">
          <mxGeometry x="-500" y="800" width="20" height="20" as="geometry" />
        </mxCell>
        <mxCell id="_4XBoN6raB5tsVcWmZe8-260" value="5" style="rounded=0;whiteSpace=wrap;html=1;fillColor=none;" vertex="1" parent="1">
          <mxGeometry x="-500" y="820" width="20" height="20" as="geometry" />
        </mxCell>
        <mxCell id="_4XBoN6raB5tsVcWmZe8-261" value="4" style="rounded=0;whiteSpace=wrap;html=1;fillColor=none;" vertex="1" parent="1">
          <mxGeometry x="-500" y="840" width="20" height="20" as="geometry" />
        </mxCell>
        <mxCell id="_4XBoN6raB5tsVcWmZe8-262" value="3" style="rounded=0;whiteSpace=wrap;html=1;fillColor=none;" vertex="1" parent="1">
          <mxGeometry x="-500" y="860" width="20" height="20" as="geometry" />
        </mxCell>
        <mxCell id="_4XBoN6raB5tsVcWmZe8-263" value="2" style="rounded=0;whiteSpace=wrap;html=1;fillColor=none;" vertex="1" parent="1">
          <mxGeometry x="-500" y="880" width="20" height="20" as="geometry" />
        </mxCell>
        <mxCell id="_4XBoN6raB5tsVcWmZe8-264" value="1" style="rounded=0;whiteSpace=wrap;html=1;fillColor=none;" vertex="1" parent="1">
          <mxGeometry x="-500" y="900" width="20" height="20" as="geometry" />
        </mxCell>
        <mxCell id="_4XBoN6raB5tsVcWmZe8-265" value="1" style="rounded=0;whiteSpace=wrap;html=1;fillColor=none;" vertex="1" parent="1">
          <mxGeometry x="-520" y="680" width="20" height="20" as="geometry" />
        </mxCell>
        <mxCell id="_4XBoN6raB5tsVcWmZe8-266" value="2" style="rounded=0;whiteSpace=wrap;html=1;fillColor=none;" vertex="1" parent="1">
          <mxGeometry x="-500" y="680" width="20" height="20" as="geometry" />
        </mxCell>
        <mxCell id="_4XBoN6raB5tsVcWmZe8-267" value="3" style="rounded=0;whiteSpace=wrap;html=1;fillColor=none;" vertex="1" parent="1">
          <mxGeometry x="-480" y="680" width="20" height="20" as="geometry" />
        </mxCell>
        <mxCell id="_4XBoN6raB5tsVcWmZe8-268" value="4" style="rounded=0;whiteSpace=wrap;html=1;fillColor=none;" vertex="1" parent="1">
          <mxGeometry x="-460" y="680" width="20" height="20" as="geometry" />
        </mxCell>
        <mxCell id="_4XBoN6raB5tsVcWmZe8-269" value="5" style="rounded=0;whiteSpace=wrap;html=1;fillColor=none;" vertex="1" parent="1">
          <mxGeometry x="-440" y="680" width="20" height="20" as="geometry" />
        </mxCell>
        <mxCell id="_4XBoN6raB5tsVcWmZe8-270" value="6" style="rounded=0;whiteSpace=wrap;html=1;fillColor=none;" vertex="1" parent="1">
          <mxGeometry x="-420" y="680" width="20" height="20" as="geometry" />
        </mxCell>
        <mxCell id="_4XBoN6raB5tsVcWmZe8-271" value="" style="rounded=0;whiteSpace=wrap;html=1;fillColor=none;" vertex="1" parent="1">
          <mxGeometry x="-560" y="720" width="20" height="20" as="geometry" />
        </mxCell>
        <mxCell id="_4XBoN6raB5tsVcWmZe8-441" style="edgeStyle=orthogonalEdgeStyle;rounded=1;orthogonalLoop=1;jettySize=auto;html=1;entryX=1;entryY=0.5;entryDx=0;entryDy=0;endArrow=none;endFill=0;dashed=1;dashPattern=1 1;" edge="1" parent="1" source="_4XBoN6raB5tsVcWmZe8-272" target="_4XBoN6raB5tsVcWmZe8-377">
          <mxGeometry relative="1" as="geometry">
            <Array as="points">
              <mxPoint x="-650" y="730" />
              <mxPoint x="-650" y="1120" />
              <mxPoint x="-530" y="1120" />
            </Array>
          </mxGeometry>
        </mxCell>
        <mxCell id="_4XBoN6raB5tsVcWmZe8-272" value="" style="ellipse;whiteSpace=wrap;html=1;fillColor=none;" vertex="1" parent="1">
          <mxGeometry x="-555" y="725" width="10" height="10" as="geometry" />
        </mxCell>
        <mxCell id="_4XBoN6raB5tsVcWmZe8-273" value="" style="rounded=0;whiteSpace=wrap;html=1;fillColor=none;" vertex="1" parent="1">
          <mxGeometry x="-560" y="740" width="20" height="20" as="geometry" />
        </mxCell>
        <mxCell id="_4XBoN6raB5tsVcWmZe8-434" style="edgeStyle=orthogonalEdgeStyle;rounded=1;orthogonalLoop=1;jettySize=auto;html=1;entryX=0;entryY=0.5;entryDx=0;entryDy=0;endArrow=none;endFill=0;dashed=1;dashPattern=1 1;" edge="1" parent="1" source="_4XBoN6raB5tsVcWmZe8-274" target="_4XBoN6raB5tsVcWmZe8-370">
          <mxGeometry relative="1" as="geometry">
            <Array as="points">
              <mxPoint x="-640" y="750" />
              <mxPoint x="-640" y="940" />
              <mxPoint x="-470" y="940" />
            </Array>
          </mxGeometry>
        </mxCell>
        <mxCell id="_4XBoN6raB5tsVcWmZe8-274" value="" style="ellipse;whiteSpace=wrap;html=1;fillColor=none;" vertex="1" parent="1">
          <mxGeometry x="-555" y="745" width="10" height="10" as="geometry" />
        </mxCell>
        <mxCell id="_4XBoN6raB5tsVcWmZe8-275" value="" style="rounded=0;whiteSpace=wrap;html=1;fillColor=none;" vertex="1" parent="1">
          <mxGeometry x="-560" y="760" width="20" height="20" as="geometry" />
        </mxCell>
        <mxCell id="_4XBoN6raB5tsVcWmZe8-435" style="edgeStyle=orthogonalEdgeStyle;rounded=1;orthogonalLoop=1;jettySize=auto;html=1;entryX=1;entryY=0.5;entryDx=0;entryDy=0;endArrow=none;endFill=0;dashed=1;dashPattern=1 1;" edge="1" parent="1" source="_4XBoN6raB5tsVcWmZe8-276" target="_4XBoN6raB5tsVcWmZe8-371">
          <mxGeometry relative="1" as="geometry">
            <Array as="points">
              <mxPoint x="-630" y="770" />
              <mxPoint x="-630" y="1090" />
              <mxPoint x="-470" y="1090" />
            </Array>
          </mxGeometry>
        </mxCell>
        <mxCell id="_4XBoN6raB5tsVcWmZe8-276" value="" style="ellipse;whiteSpace=wrap;html=1;fillColor=none;" vertex="1" parent="1">
          <mxGeometry x="-555" y="765" width="10" height="10" as="geometry" />
        </mxCell>
        <mxCell id="_4XBoN6raB5tsVcWmZe8-277" value="" style="rounded=0;whiteSpace=wrap;html=1;fillColor=none;" vertex="1" parent="1">
          <mxGeometry x="-560" y="780" width="20" height="20" as="geometry" />
        </mxCell>
        <mxCell id="_4XBoN6raB5tsVcWmZe8-436" style="edgeStyle=orthogonalEdgeStyle;rounded=1;orthogonalLoop=1;jettySize=auto;html=1;entryX=0;entryY=0.5;entryDx=0;entryDy=0;endArrow=none;endFill=0;dashed=1;dashPattern=1 1;" edge="1" parent="1" source="_4XBoN6raB5tsVcWmZe8-278" target="_4XBoN6raB5tsVcWmZe8-372">
          <mxGeometry relative="1" as="geometry">
            <Array as="points">
              <mxPoint x="-620" y="790" />
              <mxPoint x="-620" y="950" />
              <mxPoint x="-490" y="950" />
            </Array>
          </mxGeometry>
        </mxCell>
        <mxCell id="_4XBoN6raB5tsVcWmZe8-278" value="" style="ellipse;whiteSpace=wrap;html=1;fillColor=none;" vertex="1" parent="1">
          <mxGeometry x="-555" y="785" width="10" height="10" as="geometry" />
        </mxCell>
        <mxCell id="_4XBoN6raB5tsVcWmZe8-437" style="edgeStyle=orthogonalEdgeStyle;rounded=1;orthogonalLoop=1;jettySize=auto;html=1;entryX=1;entryY=0.5;entryDx=0;entryDy=0;endArrow=none;endFill=0;dashed=1;dashPattern=1 1;" edge="1" parent="1" source="_4XBoN6raB5tsVcWmZe8-279" target="_4XBoN6raB5tsVcWmZe8-373">
          <mxGeometry relative="1" as="geometry">
            <Array as="points">
              <mxPoint x="-610" y="810" />
              <mxPoint x="-610" y="1100" />
              <mxPoint x="-490" y="1100" />
            </Array>
          </mxGeometry>
        </mxCell>
        <mxCell id="_4XBoN6raB5tsVcWmZe8-279" value="" style="rounded=0;whiteSpace=wrap;html=1;fillColor=none;" vertex="1" parent="1">
          <mxGeometry x="-560" y="800" width="20" height="20" as="geometry" />
        </mxCell>
        <mxCell id="_4XBoN6raB5tsVcWmZe8-280" value="" style="ellipse;whiteSpace=wrap;html=1;fillColor=none;" vertex="1" parent="1">
          <mxGeometry x="-555" y="805" width="10" height="10" as="geometry" />
        </mxCell>
        <mxCell id="_4XBoN6raB5tsVcWmZe8-281" value="" style="rounded=0;whiteSpace=wrap;html=1;fillColor=none;" vertex="1" parent="1">
          <mxGeometry x="-560" y="820" width="20" height="20" as="geometry" />
        </mxCell>
        <mxCell id="_4XBoN6raB5tsVcWmZe8-438" style="edgeStyle=orthogonalEdgeStyle;rounded=1;orthogonalLoop=1;jettySize=auto;html=1;entryX=0;entryY=0.5;entryDx=0;entryDy=0;endArrow=none;endFill=0;dashed=1;dashPattern=1 1;" edge="1" parent="1" source="_4XBoN6raB5tsVcWmZe8-282" target="_4XBoN6raB5tsVcWmZe8-374">
          <mxGeometry relative="1" as="geometry">
            <Array as="points">
              <mxPoint x="-600" y="830" />
              <mxPoint x="-600" y="960" />
              <mxPoint x="-510" y="960" />
            </Array>
          </mxGeometry>
        </mxCell>
        <mxCell id="_4XBoN6raB5tsVcWmZe8-282" value="" style="ellipse;whiteSpace=wrap;html=1;fillColor=none;" vertex="1" parent="1">
          <mxGeometry x="-555" y="825" width="10" height="10" as="geometry" />
        </mxCell>
        <mxCell id="_4XBoN6raB5tsVcWmZe8-439" style="edgeStyle=orthogonalEdgeStyle;rounded=1;orthogonalLoop=1;jettySize=auto;html=1;entryX=1;entryY=0.5;entryDx=0;entryDy=0;exitX=0;exitY=0.5;exitDx=0;exitDy=0;endArrow=none;endFill=0;dashed=1;dashPattern=1 1;" edge="1" parent="1" source="_4XBoN6raB5tsVcWmZe8-284" target="_4XBoN6raB5tsVcWmZe8-375">
          <mxGeometry relative="1" as="geometry">
            <Array as="points">
              <mxPoint x="-590" y="850" />
              <mxPoint x="-590" y="1110" />
              <mxPoint x="-510" y="1110" />
            </Array>
          </mxGeometry>
        </mxCell>
        <mxCell id="_4XBoN6raB5tsVcWmZe8-283" value="" style="rounded=0;whiteSpace=wrap;html=1;fillColor=none;" vertex="1" parent="1">
          <mxGeometry x="-560" y="840" width="20" height="20" as="geometry" />
        </mxCell>
        <mxCell id="_4XBoN6raB5tsVcWmZe8-284" value="" style="ellipse;whiteSpace=wrap;html=1;fillColor=none;" vertex="1" parent="1">
          <mxGeometry x="-555" y="845" width="10" height="10" as="geometry" />
        </mxCell>
        <mxCell id="_4XBoN6raB5tsVcWmZe8-285" value="" style="rounded=0;whiteSpace=wrap;html=1;fillColor=none;" vertex="1" parent="1">
          <mxGeometry x="-560" y="860" width="20" height="20" as="geometry" />
        </mxCell>
        <mxCell id="_4XBoN6raB5tsVcWmZe8-440" style="edgeStyle=orthogonalEdgeStyle;rounded=1;orthogonalLoop=1;jettySize=auto;html=1;entryX=0;entryY=0.5;entryDx=0;entryDy=0;endArrow=none;endFill=0;dashed=1;dashPattern=1 1;" edge="1" parent="1" source="_4XBoN6raB5tsVcWmZe8-286" target="_4XBoN6raB5tsVcWmZe8-376">
          <mxGeometry relative="1" as="geometry">
            <Array as="points">
              <mxPoint x="-580" y="870" />
              <mxPoint x="-580" y="970" />
              <mxPoint x="-530" y="970" />
            </Array>
          </mxGeometry>
        </mxCell>
        <mxCell id="_4XBoN6raB5tsVcWmZe8-286" value="" style="ellipse;whiteSpace=wrap;html=1;fillColor=none;" vertex="1" parent="1">
          <mxGeometry x="-555" y="865" width="10" height="10" as="geometry" />
        </mxCell>
        <mxCell id="_4XBoN6raB5tsVcWmZe8-287" value="" style="rounded=0;whiteSpace=wrap;html=1;fillColor=none;" vertex="1" parent="1">
          <mxGeometry x="-560" y="880" width="20" height="20" as="geometry" />
        </mxCell>
        <mxCell id="_4XBoN6raB5tsVcWmZe8-602" style="edgeStyle=orthogonalEdgeStyle;rounded=1;orthogonalLoop=1;jettySize=auto;html=1;entryX=0.5;entryY=1;entryDx=0;entryDy=0;endArrow=none;endFill=0;" edge="1" parent="1" source="_4XBoN6raB5tsVcWmZe8-288" target="_4XBoN6raB5tsVcWmZe8-378">
          <mxGeometry relative="1" as="geometry">
            <Array as="points">
              <mxPoint x="-660" y="890" />
              <mxPoint x="-660" y="1010" />
            </Array>
          </mxGeometry>
        </mxCell>
        <mxCell id="_4XBoN6raB5tsVcWmZe8-288" value="" style="ellipse;whiteSpace=wrap;html=1;fillColor=#d8dee9;" vertex="1" parent="1">
          <mxGeometry x="-555" y="885" width="10" height="10" as="geometry" />
        </mxCell>
        <mxCell id="_4XBoN6raB5tsVcWmZe8-289" value="" style="rounded=0;whiteSpace=wrap;html=1;fillColor=none;" vertex="1" parent="1">
          <mxGeometry x="-560" y="900" width="20" height="20" as="geometry" />
        </mxCell>
        <mxCell id="_4XBoN6raB5tsVcWmZe8-290" value="" style="ellipse;whiteSpace=wrap;html=1;fillColor=none;" vertex="1" parent="1">
          <mxGeometry x="-555" y="905" width="10" height="10" as="geometry" />
        </mxCell>
        <mxCell id="_4XBoN6raB5tsVcWmZe8-291" value="" style="rounded=0;whiteSpace=wrap;html=1;fillColor=none;" vertex="1" parent="1">
          <mxGeometry x="-380" y="720" width="20" height="20" as="geometry" />
        </mxCell>
        <mxCell id="_4XBoN6raB5tsVcWmZe8-432" style="edgeStyle=orthogonalEdgeStyle;rounded=1;orthogonalLoop=1;jettySize=auto;html=1;entryX=0;entryY=0.5;entryDx=0;entryDy=0;endArrow=none;endFill=0;dashed=1;dashPattern=1 1;" edge="1" parent="1" source="_4XBoN6raB5tsVcWmZe8-292" target="_4XBoN6raB5tsVcWmZe8-368">
          <mxGeometry relative="1" as="geometry">
            <Array as="points">
              <mxPoint x="-280" y="730" />
              <mxPoint x="-280" y="970" />
              <mxPoint x="-450" y="970" />
            </Array>
          </mxGeometry>
        </mxCell>
        <mxCell id="_4XBoN6raB5tsVcWmZe8-292" value="" style="ellipse;whiteSpace=wrap;html=1;fillColor=none;" vertex="1" parent="1">
          <mxGeometry x="-375" y="725" width="10" height="10" as="geometry" />
        </mxCell>
        <mxCell id="_4XBoN6raB5tsVcWmZe8-293" value="" style="rounded=0;whiteSpace=wrap;html=1;fillColor=none;" vertex="1" parent="1">
          <mxGeometry x="-380" y="740" width="20" height="20" as="geometry" />
        </mxCell>
        <mxCell id="_4XBoN6raB5tsVcWmZe8-431" style="edgeStyle=orthogonalEdgeStyle;rounded=1;orthogonalLoop=1;jettySize=auto;html=1;entryX=1;entryY=0.5;entryDx=0;entryDy=0;endArrow=none;endFill=0;dashed=1;dashPattern=1 1;" edge="1" parent="1" source="_4XBoN6raB5tsVcWmZe8-294" target="_4XBoN6raB5tsVcWmZe8-367">
          <mxGeometry relative="1" as="geometry">
            <Array as="points">
              <mxPoint x="-290" y="750" />
              <mxPoint x="-290" y="1110" />
              <mxPoint x="-430" y="1110" />
            </Array>
          </mxGeometry>
        </mxCell>
        <mxCell id="_4XBoN6raB5tsVcWmZe8-294" value="" style="ellipse;whiteSpace=wrap;html=1;fillColor=none;" vertex="1" parent="1">
          <mxGeometry x="-375" y="745" width="10" height="10" as="geometry" />
        </mxCell>
        <mxCell id="_4XBoN6raB5tsVcWmZe8-295" value="" style="rounded=0;whiteSpace=wrap;html=1;fillColor=none;" vertex="1" parent="1">
          <mxGeometry x="-380" y="760" width="20" height="20" as="geometry" />
        </mxCell>
        <mxCell id="_4XBoN6raB5tsVcWmZe8-430" style="edgeStyle=orthogonalEdgeStyle;rounded=1;orthogonalLoop=1;jettySize=auto;html=1;entryX=0;entryY=0.5;entryDx=0;entryDy=0;endArrow=none;endFill=0;dashed=1;dashPattern=1 1;" edge="1" parent="1" source="_4XBoN6raB5tsVcWmZe8-296" target="_4XBoN6raB5tsVcWmZe8-366">
          <mxGeometry relative="1" as="geometry">
            <Array as="points">
              <mxPoint x="-300" y="770" />
              <mxPoint x="-300" y="960" />
              <mxPoint x="-430" y="960" />
            </Array>
          </mxGeometry>
        </mxCell>
        <mxCell id="_4XBoN6raB5tsVcWmZe8-296" value="" style="ellipse;whiteSpace=wrap;html=1;fillColor=none;" vertex="1" parent="1">
          <mxGeometry x="-375" y="765" width="10" height="10" as="geometry" />
        </mxCell>
        <mxCell id="_4XBoN6raB5tsVcWmZe8-297" value="" style="rounded=0;whiteSpace=wrap;html=1;fillColor=none;" vertex="1" parent="1">
          <mxGeometry x="-380" y="780" width="20" height="20" as="geometry" />
        </mxCell>
        <mxCell id="_4XBoN6raB5tsVcWmZe8-429" style="edgeStyle=orthogonalEdgeStyle;rounded=1;orthogonalLoop=1;jettySize=auto;html=1;entryX=1;entryY=0.5;entryDx=0;entryDy=0;endArrow=none;endFill=0;dashed=1;dashPattern=1 1;" edge="1" parent="1" source="_4XBoN6raB5tsVcWmZe8-298" target="_4XBoN6raB5tsVcWmZe8-365">
          <mxGeometry relative="1" as="geometry">
            <Array as="points">
              <mxPoint x="-310" y="790" />
              <mxPoint x="-310" y="1100" />
              <mxPoint x="-410" y="1100" />
            </Array>
          </mxGeometry>
        </mxCell>
        <mxCell id="_4XBoN6raB5tsVcWmZe8-298" value="" style="ellipse;whiteSpace=wrap;html=1;fillColor=none;" vertex="1" parent="1">
          <mxGeometry x="-375" y="785" width="10" height="10" as="geometry" />
        </mxCell>
        <mxCell id="_4XBoN6raB5tsVcWmZe8-299" value="" style="rounded=0;whiteSpace=wrap;html=1;fillColor=none;" vertex="1" parent="1">
          <mxGeometry x="-380" y="800" width="20" height="20" as="geometry" />
        </mxCell>
        <mxCell id="_4XBoN6raB5tsVcWmZe8-428" style="edgeStyle=orthogonalEdgeStyle;rounded=1;orthogonalLoop=1;jettySize=auto;html=1;entryX=0;entryY=0.5;entryDx=0;entryDy=0;endArrow=none;endFill=0;dashed=1;dashPattern=1 1;" edge="1" parent="1" source="_4XBoN6raB5tsVcWmZe8-300" target="_4XBoN6raB5tsVcWmZe8-364">
          <mxGeometry relative="1" as="geometry">
            <Array as="points">
              <mxPoint x="-320" y="810" />
              <mxPoint x="-320" y="950" />
              <mxPoint x="-410" y="950" />
            </Array>
          </mxGeometry>
        </mxCell>
        <mxCell id="_4XBoN6raB5tsVcWmZe8-300" value="" style="ellipse;whiteSpace=wrap;html=1;fillColor=none;" vertex="1" parent="1">
          <mxGeometry x="-375" y="805" width="10" height="10" as="geometry" />
        </mxCell>
        <mxCell id="_4XBoN6raB5tsVcWmZe8-301" value="" style="rounded=0;whiteSpace=wrap;html=1;fillColor=none;" vertex="1" parent="1">
          <mxGeometry x="-380" y="820" width="20" height="20" as="geometry" />
        </mxCell>
        <mxCell id="_4XBoN6raB5tsVcWmZe8-427" style="edgeStyle=orthogonalEdgeStyle;rounded=1;orthogonalLoop=1;jettySize=auto;html=1;entryX=1;entryY=0.5;entryDx=0;entryDy=0;endArrow=none;endFill=0;dashed=1;dashPattern=1 1;" edge="1" parent="1" source="_4XBoN6raB5tsVcWmZe8-302" target="_4XBoN6raB5tsVcWmZe8-363">
          <mxGeometry relative="1" as="geometry">
            <Array as="points">
              <mxPoint x="-330" y="830" />
              <mxPoint x="-330" y="1090" />
              <mxPoint x="-390" y="1090" />
            </Array>
          </mxGeometry>
        </mxCell>
        <mxCell id="_4XBoN6raB5tsVcWmZe8-302" value="" style="ellipse;whiteSpace=wrap;html=1;fillColor=none;" vertex="1" parent="1">
          <mxGeometry x="-375" y="825" width="10" height="10" as="geometry" />
        </mxCell>
        <mxCell id="_4XBoN6raB5tsVcWmZe8-303" value="" style="rounded=0;whiteSpace=wrap;html=1;fillColor=none;" vertex="1" parent="1">
          <mxGeometry x="-380" y="840" width="20" height="20" as="geometry" />
        </mxCell>
        <mxCell id="_4XBoN6raB5tsVcWmZe8-426" style="edgeStyle=orthogonalEdgeStyle;rounded=1;orthogonalLoop=1;jettySize=auto;html=1;entryX=0;entryY=0.5;entryDx=0;entryDy=0;endArrow=none;endFill=0;dashed=1;dashPattern=1 1;" edge="1" parent="1" source="_4XBoN6raB5tsVcWmZe8-304" target="_4XBoN6raB5tsVcWmZe8-362">
          <mxGeometry relative="1" as="geometry">
            <Array as="points">
              <mxPoint x="-340" y="850" />
              <mxPoint x="-340" y="940" />
              <mxPoint x="-390" y="940" />
            </Array>
          </mxGeometry>
        </mxCell>
        <mxCell id="_4XBoN6raB5tsVcWmZe8-304" value="" style="ellipse;whiteSpace=wrap;html=1;fillColor=none;" vertex="1" parent="1">
          <mxGeometry x="-375" y="845" width="10" height="10" as="geometry" />
        </mxCell>
        <mxCell id="_4XBoN6raB5tsVcWmZe8-305" value="" style="rounded=0;whiteSpace=wrap;html=1;fillColor=none;" vertex="1" parent="1">
          <mxGeometry x="-380" y="860" width="20" height="20" as="geometry" />
        </mxCell>
        <mxCell id="_4XBoN6raB5tsVcWmZe8-433" style="edgeStyle=orthogonalEdgeStyle;rounded=1;orthogonalLoop=1;jettySize=auto;html=1;entryX=1;entryY=0.5;entryDx=0;entryDy=0;endArrow=none;endFill=0;dashed=1;dashPattern=1 1;" edge="1" parent="1" source="_4XBoN6raB5tsVcWmZe8-306" target="_4XBoN6raB5tsVcWmZe8-369">
          <mxGeometry relative="1" as="geometry">
            <Array as="points">
              <mxPoint x="-270" y="870" />
              <mxPoint x="-270" y="1120" />
              <mxPoint x="-450" y="1120" />
            </Array>
          </mxGeometry>
        </mxCell>
        <mxCell id="_4XBoN6raB5tsVcWmZe8-306" value="" style="ellipse;whiteSpace=wrap;html=1;fillColor=none;" vertex="1" parent="1">
          <mxGeometry x="-375" y="865" width="10" height="10" as="geometry" />
        </mxCell>
        <mxCell id="_4XBoN6raB5tsVcWmZe8-307" value="" style="rounded=0;whiteSpace=wrap;html=1;fillColor=none;" vertex="1" parent="1">
          <mxGeometry x="-380" y="880" width="20" height="20" as="geometry" />
        </mxCell>
        <mxCell id="_4XBoN6raB5tsVcWmZe8-308" value="" style="ellipse;whiteSpace=wrap;html=1;fillColor=none;" vertex="1" parent="1">
          <mxGeometry x="-375" y="885" width="10" height="10" as="geometry" />
        </mxCell>
        <mxCell id="_4XBoN6raB5tsVcWmZe8-309" value="" style="rounded=0;whiteSpace=wrap;html=1;fillColor=none;" vertex="1" parent="1">
          <mxGeometry x="-380" y="900" width="20" height="20" as="geometry" />
        </mxCell>
        <mxCell id="_4XBoN6raB5tsVcWmZe8-601" style="edgeStyle=orthogonalEdgeStyle;rounded=1;orthogonalLoop=1;jettySize=auto;html=1;entryX=0.5;entryY=0;entryDx=0;entryDy=0;endArrow=none;endFill=0;strokeColor=#BF616A;" edge="1" parent="1" source="_4XBoN6raB5tsVcWmZe8-310" target="_4XBoN6raB5tsVcWmZe8-360">
          <mxGeometry relative="1" as="geometry">
            <Array as="points">
              <mxPoint x="-260" y="910" />
              <mxPoint x="-260" y="1010" />
            </Array>
          </mxGeometry>
        </mxCell>
        <mxCell id="_4XBoN6raB5tsVcWmZe8-310" value="" style="ellipse;whiteSpace=wrap;html=1;fillColor=#BF616A;" vertex="1" parent="1">
          <mxGeometry x="-375" y="905" width="10" height="10" as="geometry" />
        </mxCell>
        <mxCell id="_4XBoN6raB5tsVcWmZe8-311" value="VCC" style="rounded=0;whiteSpace=wrap;html=1;spacingLeft=3;align=left;rotation=-90;fillColor=none;" vertex="1" parent="1">
          <mxGeometry x="-530" y="650" width="40" height="20" as="geometry" />
        </mxCell>
        <mxCell id="_4XBoN6raB5tsVcWmZe8-312" value="GND" style="rounded=0;whiteSpace=wrap;html=1;spacingLeft=3;align=left;rotation=-90;fillColor=none;" vertex="1" parent="1">
          <mxGeometry x="-510" y="650" width="40" height="20" as="geometry" />
        </mxCell>
        <mxCell id="_4XBoN6raB5tsVcWmZe8-313" value="SDA" style="rounded=0;whiteSpace=wrap;html=1;spacingLeft=3;align=left;rotation=-90;fillColor=none;" vertex="1" parent="1">
          <mxGeometry x="-490" y="650" width="40" height="20" as="geometry" />
        </mxCell>
        <mxCell id="_4XBoN6raB5tsVcWmZe8-314" value="SCL" style="rounded=0;whiteSpace=wrap;html=1;spacingLeft=3;align=left;rotation=-90;fillColor=none;" vertex="1" parent="1">
          <mxGeometry x="-470" y="650" width="40" height="20" as="geometry" />
        </mxCell>
        <mxCell id="_4XBoN6raB5tsVcWmZe8-315" value="INTA" style="rounded=0;whiteSpace=wrap;html=1;spacingLeft=3;align=left;rotation=-90;fillColor=none;" vertex="1" parent="1">
          <mxGeometry x="-450" y="650" width="40" height="20" as="geometry" />
        </mxCell>
        <mxCell id="_4XBoN6raB5tsVcWmZe8-316" value="INTB" style="rounded=0;whiteSpace=wrap;html=1;spacingLeft=3;align=left;rotation=-90;fillColor=none;" vertex="1" parent="1">
          <mxGeometry x="-430" y="650" width="40" height="20" as="geometry" />
        </mxCell>
        <mxCell id="_4XBoN6raB5tsVcWmZe8-245" value="GPB1" style="rounded=0;whiteSpace=wrap;html=1;spacingLeft=3;align=left;fillColor=none;" vertex="1" parent="1">
          <mxGeometry x="-540" y="740" width="40" height="20" as="geometry" />
        </mxCell>
        <mxCell id="_4XBoN6raB5tsVcWmZe8-246" value="GPB2" style="rounded=0;whiteSpace=wrap;html=1;spacingLeft=3;align=left;fillColor=none;" vertex="1" parent="1">
          <mxGeometry x="-540" y="760" width="40" height="20" as="geometry" />
        </mxCell>
        <mxCell id="_4XBoN6raB5tsVcWmZe8-247" value="GPB3" style="rounded=0;whiteSpace=wrap;html=1;spacingLeft=3;align=left;fillColor=none;" vertex="1" parent="1">
          <mxGeometry x="-540" y="780" width="40" height="20" as="geometry" />
        </mxCell>
        <mxCell id="_4XBoN6raB5tsVcWmZe8-248" value="GPB4" style="rounded=0;whiteSpace=wrap;html=1;spacingLeft=3;align=left;fillColor=none;" vertex="1" parent="1">
          <mxGeometry x="-540" y="800" width="40" height="20" as="geometry" />
        </mxCell>
        <mxCell id="_4XBoN6raB5tsVcWmZe8-249" value="GPB0" style="rounded=0;whiteSpace=wrap;html=1;spacingLeft=3;align=left;fillColor=none;" vertex="1" parent="1">
          <mxGeometry x="-540" y="720" width="40" height="20" as="geometry" />
        </mxCell>
        <mxCell id="_4XBoN6raB5tsVcWmZe8-255" value="GPB6" style="rounded=0;whiteSpace=wrap;html=1;spacingLeft=3;align=left;fillColor=none;" vertex="1" parent="1">
          <mxGeometry x="-540" y="840" width="40" height="20" as="geometry" />
        </mxCell>
        <mxCell id="_4XBoN6raB5tsVcWmZe8-256" value="GPB7" style="rounded=0;whiteSpace=wrap;html=1;spacingLeft=3;align=left;fillColor=none;" vertex="1" parent="1">
          <mxGeometry x="-540" y="860" width="40" height="20" as="geometry" />
        </mxCell>
        <mxCell id="_4XBoN6raB5tsVcWmZe8-257" value="GND" style="rounded=0;whiteSpace=wrap;html=1;spacingLeft=3;align=left;fillColor=none;" vertex="1" parent="1">
          <mxGeometry x="-540" y="880" width="40" height="20" as="geometry" />
        </mxCell>
        <mxCell id="_4XBoN6raB5tsVcWmZe8-258" value="VCC" style="rounded=0;whiteSpace=wrap;html=1;spacingLeft=3;align=left;fillColor=none;" vertex="1" parent="1">
          <mxGeometry x="-540" y="900" width="40" height="20" as="geometry" />
        </mxCell>
        <mxCell id="_4XBoN6raB5tsVcWmZe8-259" value="GPB5" style="rounded=0;whiteSpace=wrap;html=1;spacingLeft=3;align=left;fillColor=none;" vertex="1" parent="1">
          <mxGeometry x="-540" y="820" width="40" height="20" as="geometry" />
        </mxCell>
        <mxCell id="_4XBoN6raB5tsVcWmZe8-199" value="GPA6" style="rounded=0;whiteSpace=wrap;html=1;spacingLeft=3;align=left;fillColor=none;" vertex="1" parent="1">
          <mxGeometry x="-420" y="740" width="40" height="20" as="geometry" />
        </mxCell>
        <mxCell id="_4XBoN6raB5tsVcWmZe8-200" value="GPA5" style="rounded=0;whiteSpace=wrap;html=1;spacingLeft=3;align=left;fillColor=none;" vertex="1" parent="1">
          <mxGeometry x="-420" y="760" width="40" height="20" as="geometry" />
        </mxCell>
        <mxCell id="_4XBoN6raB5tsVcWmZe8-201" value="GPA4" style="rounded=0;whiteSpace=wrap;html=1;spacingLeft=3;align=left;fillColor=none;" vertex="1" parent="1">
          <mxGeometry x="-420" y="780" width="40" height="20" as="geometry" />
        </mxCell>
        <mxCell id="_4XBoN6raB5tsVcWmZe8-202" value="GPA3" style="rounded=0;whiteSpace=wrap;html=1;spacingLeft=3;align=left;fillColor=none;" vertex="1" parent="1">
          <mxGeometry x="-420" y="800" width="40" height="20" as="geometry" />
        </mxCell>
        <mxCell id="_4XBoN6raB5tsVcWmZe8-204" value="GPA7" style="rounded=0;whiteSpace=wrap;html=1;spacingLeft=3;align=left;fillColor=none;" vertex="1" parent="1">
          <mxGeometry x="-420" y="720" width="40" height="20" as="geometry" />
        </mxCell>
        <mxCell id="_4XBoN6raB5tsVcWmZe8-225" value="GPA1" style="rounded=0;whiteSpace=wrap;html=1;spacingLeft=3;align=left;fillColor=none;" vertex="1" parent="1">
          <mxGeometry x="-420" y="840" width="40" height="20" as="geometry" />
        </mxCell>
        <mxCell id="_4XBoN6raB5tsVcWmZe8-226" value="GPA0" style="rounded=0;whiteSpace=wrap;html=1;spacingLeft=3;align=left;fillColor=none;" vertex="1" parent="1">
          <mxGeometry x="-420" y="860" width="40" height="20" as="geometry" />
        </mxCell>
        <mxCell id="_4XBoN6raB5tsVcWmZe8-227" value="GND" style="rounded=0;whiteSpace=wrap;html=1;spacingLeft=3;align=left;fillColor=none;" vertex="1" parent="1">
          <mxGeometry x="-420" y="880" width="40" height="20" as="geometry" />
        </mxCell>
        <mxCell id="_4XBoN6raB5tsVcWmZe8-228" value="VCC" style="rounded=0;whiteSpace=wrap;html=1;spacingLeft=3;align=left;fillColor=none;" vertex="1" parent="1">
          <mxGeometry x="-420" y="900" width="40" height="20" as="geometry" />
        </mxCell>
        <mxCell id="_4XBoN6raB5tsVcWmZe8-229" value="GPA2" style="rounded=0;whiteSpace=wrap;html=1;spacingLeft=3;align=left;fillColor=none;" vertex="1" parent="1">
          <mxGeometry x="-420" y="820" width="40" height="20" as="geometry" />
        </mxCell>
        <mxCell id="_4XBoN6raB5tsVcWmZe8-320" value="" style="rounded=0;whiteSpace=wrap;html=1;fillColor=none;" vertex="1" parent="1">
          <mxGeometry x="-520" y="620" width="20" height="20" as="geometry" />
        </mxCell>
        <mxCell id="_4XBoN6raB5tsVcWmZe8-321" value="" style="rounded=0;whiteSpace=wrap;html=1;fillColor=none;" vertex="1" parent="1">
          <mxGeometry x="-500" y="620" width="20" height="20" as="geometry" />
        </mxCell>
        <mxCell id="_4XBoN6raB5tsVcWmZe8-322" value="" style="ellipse;whiteSpace=wrap;html=1;fillColor=#BF616A;" vertex="1" parent="1">
          <mxGeometry x="-515" y="625" width="10" height="10" as="geometry" />
        </mxCell>
        <mxCell id="_4XBoN6raB5tsVcWmZe8-323" value="" style="ellipse;whiteSpace=wrap;html=1;fillColor=#FFFFFF;" vertex="1" parent="1">
          <mxGeometry x="-495" y="625" width="10" height="10" as="geometry" />
        </mxCell>
        <mxCell id="_4XBoN6raB5tsVcWmZe8-324" value="" style="rounded=0;whiteSpace=wrap;html=1;fillColor=none;" vertex="1" parent="1">
          <mxGeometry x="-480" y="620" width="20" height="20" as="geometry" />
        </mxCell>
        <mxCell id="_4XBoN6raB5tsVcWmZe8-325" value="" style="rounded=0;whiteSpace=wrap;html=1;fillColor=none;" vertex="1" parent="1">
          <mxGeometry x="-460" y="620" width="20" height="20" as="geometry" />
        </mxCell>
        <mxCell id="_4XBoN6raB5tsVcWmZe8-326" value="" style="ellipse;whiteSpace=wrap;html=1;fillColor=#EBCB8B;" vertex="1" parent="1">
          <mxGeometry x="-475" y="625" width="10" height="10" as="geometry" />
        </mxCell>
        <mxCell id="_4XBoN6raB5tsVcWmZe8-327" value="" style="ellipse;whiteSpace=wrap;html=1;fillColor=#A3BE8C;" vertex="1" parent="1">
          <mxGeometry x="-455" y="625" width="10" height="10" as="geometry" />
        </mxCell>
        <mxCell id="_4XBoN6raB5tsVcWmZe8-328" value="" style="rounded=0;whiteSpace=wrap;html=1;fillColor=none;" vertex="1" parent="1">
          <mxGeometry x="-440" y="620" width="20" height="20" as="geometry" />
        </mxCell>
        <mxCell id="_4XBoN6raB5tsVcWmZe8-329" value="" style="rounded=0;whiteSpace=wrap;html=1;fillColor=none;" vertex="1" parent="1">
          <mxGeometry x="-420" y="620" width="20" height="20" as="geometry" />
        </mxCell>
        <mxCell id="_4XBoN6raB5tsVcWmZe8-330" value="" style="ellipse;whiteSpace=wrap;html=1;fillColor=none;" vertex="1" parent="1">
          <mxGeometry x="-435" y="625" width="10" height="10" as="geometry" />
        </mxCell>
        <mxCell id="_4XBoN6raB5tsVcWmZe8-331" value="" style="ellipse;whiteSpace=wrap;html=1;fillColor=none;" vertex="1" parent="1">
          <mxGeometry x="-415" y="625" width="10" height="10" as="geometry" />
        </mxCell>
        <mxCell id="_4XBoN6raB5tsVcWmZe8-332" value="MCP23017" style="text;html=1;fillColor=none;align=center;verticalAlign=middle;whiteSpace=wrap;rounded=0;fontSize=18;rotation=-90;" vertex="1" parent="1">
          <mxGeometry x="-556.25" y="803.75" width="193.5" height="30" as="geometry" />
        </mxCell>
        <mxCell id="_4XBoN6raB5tsVcWmZe8-334" style="edgeStyle=orthogonalEdgeStyle;rounded=1;orthogonalLoop=1;jettySize=auto;html=1;entryX=0.5;entryY=0;entryDx=0;entryDy=0;endArrow=none;endFill=0;fillColor=#d80073;strokeColor=#bf616a;exitX=0;exitY=0.5;exitDx=0;exitDy=0;" edge="1" parent="1" source="_4XBoN6raB5tsVcWmZe8-127" target="_4XBoN6raB5tsVcWmZe8-322">
          <mxGeometry relative="1" as="geometry">
            <Array as="points">
              <mxPoint x="-420" y="130" />
              <mxPoint x="-420" y="570" />
              <mxPoint x="-510" y="570" />
            </Array>
          </mxGeometry>
        </mxCell>
        <mxCell id="_4XBoN6raB5tsVcWmZe8-335" style="edgeStyle=orthogonalEdgeStyle;rounded=1;orthogonalLoop=1;jettySize=auto;html=1;entryX=0.5;entryY=0;entryDx=0;entryDy=0;endArrow=none;endFill=0;fillColor=none;" edge="1" parent="1" source="_4XBoN6raB5tsVcWmZe8-131" target="_4XBoN6raB5tsVcWmZe8-323">
          <mxGeometry relative="1" as="geometry">
            <Array as="points">
              <mxPoint x="-430" y="170" />
              <mxPoint x="-430" y="590" />
              <mxPoint x="-490" y="590" />
            </Array>
          </mxGeometry>
        </mxCell>
        <mxCell id="_4XBoN6raB5tsVcWmZe8-336" style="edgeStyle=orthogonalEdgeStyle;rounded=1;orthogonalLoop=1;jettySize=auto;html=1;entryX=0.5;entryY=0;entryDx=0;entryDy=0;endArrow=none;endFill=0;fillColor=none;strokeColor=#ebcb8b;" edge="1" parent="1" source="_4XBoN6raB5tsVcWmZe8-128" target="_4XBoN6raB5tsVcWmZe8-326">
          <mxGeometry relative="1" as="geometry">
            <Array as="points">
              <mxPoint x="-500" y="150" />
              <mxPoint x="-500" y="600" />
              <mxPoint x="-470" y="600" />
            </Array>
          </mxGeometry>
        </mxCell>
        <mxCell id="_4XBoN6raB5tsVcWmZe8-337" style="edgeStyle=orthogonalEdgeStyle;rounded=1;orthogonalLoop=1;jettySize=auto;html=1;entryX=0.5;entryY=0;entryDx=0;entryDy=0;endArrow=none;endFill=0;fillColor=none;strokeColor=#a3be8c;" edge="1" parent="1" source="_4XBoN6raB5tsVcWmZe8-130" target="_4XBoN6raB5tsVcWmZe8-327">
          <mxGeometry relative="1" as="geometry">
            <Array as="points">
              <mxPoint x="-490" y="170" />
              <mxPoint x="-490" y="580" />
              <mxPoint x="-450" y="580" />
            </Array>
          </mxGeometry>
        </mxCell>
        <mxCell id="_4XBoN6raB5tsVcWmZe8-338" value="Raspberry PI GPIO" style="text;html=1;strokeColor=none;fillColor=none;align=left;verticalAlign=middle;whiteSpace=wrap;rounded=0;fontSize=18;rotation=0;" vertex="1" parent="1">
          <mxGeometry x="-700" y="80" width="250" height="30" as="geometry" />
        </mxCell>
        <mxCell id="_4XBoN6raB5tsVcWmZe8-339" value="" style="rounded=0;whiteSpace=wrap;html=1;strokeColor=none;fillColor=#2E3440;" vertex="1" parent="1">
          <mxGeometry x="-850" width="10" height="10" as="geometry" />
        </mxCell>
        <mxCell id="_4XBoN6raB5tsVcWmZe8-396" value="5V" style="rounded=0;whiteSpace=wrap;html=1;spacingLeft=0;align=center;fillColor=none;" vertex="1" parent="1">
          <mxGeometry x="-380" y="1020" width="20" height="20" as="geometry" />
        </mxCell>
        <mxCell id="_4XBoN6raB5tsVcWmZe8-340" value="" style="rounded=0;whiteSpace=wrap;html=1;fillColor=none;rotation=90;" vertex="1" parent="1">
          <mxGeometry x="-380" y="1000" width="20" height="20" as="geometry" />
        </mxCell>
        <mxCell id="_4XBoN6raB5tsVcWmZe8-341" value="" style="rounded=0;whiteSpace=wrap;html=1;fillColor=none;rotation=90;" vertex="1" parent="1">
          <mxGeometry x="-380" y="1060" width="20" height="20" as="geometry" />
        </mxCell>
        <mxCell id="_4XBoN6raB5tsVcWmZe8-342" value="" style="rounded=0;whiteSpace=wrap;html=1;fillColor=none;rotation=90;" vertex="1" parent="1">
          <mxGeometry x="-400" y="1000" width="20" height="20" as="geometry" />
        </mxCell>
        <mxCell id="_4XBoN6raB5tsVcWmZe8-343" value="" style="rounded=0;whiteSpace=wrap;html=1;fillColor=none;rotation=90;" vertex="1" parent="1">
          <mxGeometry x="-400" y="1060" width="20" height="20" as="geometry" />
        </mxCell>
        <mxCell id="_4XBoN6raB5tsVcWmZe8-344" value="" style="rounded=0;whiteSpace=wrap;html=1;fillColor=none;rotation=90;" vertex="1" parent="1">
          <mxGeometry x="-420" y="1000" width="20" height="20" as="geometry" />
        </mxCell>
        <mxCell id="_4XBoN6raB5tsVcWmZe8-345" value="" style="rounded=0;whiteSpace=wrap;html=1;fillColor=none;rotation=90;" vertex="1" parent="1">
          <mxGeometry x="-420" y="1060" width="20" height="20" as="geometry" />
        </mxCell>
        <mxCell id="_4XBoN6raB5tsVcWmZe8-346" value="" style="rounded=0;whiteSpace=wrap;html=1;fillColor=none;rotation=90;" vertex="1" parent="1">
          <mxGeometry x="-440" y="1000" width="20" height="20" as="geometry" />
        </mxCell>
        <mxCell id="_4XBoN6raB5tsVcWmZe8-347" value="" style="rounded=0;whiteSpace=wrap;html=1;fillColor=none;rotation=90;" vertex="1" parent="1">
          <mxGeometry x="-440" y="1060" width="20" height="20" as="geometry" />
        </mxCell>
        <mxCell id="_4XBoN6raB5tsVcWmZe8-348" value="" style="rounded=0;whiteSpace=wrap;html=1;fillColor=none;rotation=90;" vertex="1" parent="1">
          <mxGeometry x="-460" y="1000" width="20" height="20" as="geometry" />
        </mxCell>
        <mxCell id="_4XBoN6raB5tsVcWmZe8-349" value="" style="rounded=0;whiteSpace=wrap;html=1;fillColor=none;rotation=90;" vertex="1" parent="1">
          <mxGeometry x="-460" y="1060" width="20" height="20" as="geometry" />
        </mxCell>
        <mxCell id="_4XBoN6raB5tsVcWmZe8-350" value="" style="rounded=0;whiteSpace=wrap;html=1;fillColor=none;rotation=90;" vertex="1" parent="1">
          <mxGeometry x="-480" y="1000" width="20" height="20" as="geometry" />
        </mxCell>
        <mxCell id="_4XBoN6raB5tsVcWmZe8-351" value="" style="rounded=0;whiteSpace=wrap;html=1;fillColor=none;rotation=90;" vertex="1" parent="1">
          <mxGeometry x="-480" y="1060" width="20" height="20" as="geometry" />
        </mxCell>
        <mxCell id="_4XBoN6raB5tsVcWmZe8-352" value="" style="rounded=0;whiteSpace=wrap;html=1;fillColor=none;rotation=90;" vertex="1" parent="1">
          <mxGeometry x="-500" y="1000" width="20" height="20" as="geometry" />
        </mxCell>
        <mxCell id="_4XBoN6raB5tsVcWmZe8-353" value="" style="rounded=0;whiteSpace=wrap;html=1;fillColor=none;rotation=90;" vertex="1" parent="1">
          <mxGeometry x="-500" y="1060" width="20" height="20" as="geometry" />
        </mxCell>
        <mxCell id="_4XBoN6raB5tsVcWmZe8-354" value="" style="rounded=0;whiteSpace=wrap;html=1;fillColor=none;rotation=90;" vertex="1" parent="1">
          <mxGeometry x="-520" y="1000" width="20" height="20" as="geometry" />
        </mxCell>
        <mxCell id="_4XBoN6raB5tsVcWmZe8-355" value="" style="rounded=0;whiteSpace=wrap;html=1;fillColor=none;rotation=90;" vertex="1" parent="1">
          <mxGeometry x="-520" y="1060" width="20" height="20" as="geometry" />
        </mxCell>
        <mxCell id="_4XBoN6raB5tsVcWmZe8-356" value="" style="rounded=0;whiteSpace=wrap;html=1;fillColor=none;rotation=90;" vertex="1" parent="1">
          <mxGeometry x="-540" y="1000" width="20" height="20" as="geometry" />
        </mxCell>
        <mxCell id="_4XBoN6raB5tsVcWmZe8-357" value="" style="rounded=0;whiteSpace=wrap;html=1;fillColor=none;rotation=90;" vertex="1" parent="1">
          <mxGeometry x="-540" y="1060" width="20" height="20" as="geometry" />
        </mxCell>
        <mxCell id="_4XBoN6raB5tsVcWmZe8-358" value="" style="rounded=0;whiteSpace=wrap;html=1;fillColor=none;rotation=90;" vertex="1" parent="1">
          <mxGeometry x="-560" y="1000" width="20" height="20" as="geometry" />
        </mxCell>
        <mxCell id="_4XBoN6raB5tsVcWmZe8-359" value="" style="rounded=0;whiteSpace=wrap;html=1;fillColor=none;rotation=90;" vertex="1" parent="1">
          <mxGeometry x="-560" y="1060" width="20" height="20" as="geometry" />
        </mxCell>
        <mxCell id="_4XBoN6raB5tsVcWmZe8-360" value="" style="ellipse;whiteSpace=wrap;html=1;fillColor=#BF616A;rotation=90;" vertex="1" parent="1">
          <mxGeometry x="-375" y="1005" width="10" height="10" as="geometry" />
        </mxCell>
        <mxCell id="_4XBoN6raB5tsVcWmZe8-361" value="" style="ellipse;whiteSpace=wrap;html=1;fillColor=none;rotation=90;" vertex="1" parent="1">
          <mxGeometry x="-375" y="1065" width="10" height="10" as="geometry" />
        </mxCell>
        <mxCell id="_4XBoN6raB5tsVcWmZe8-362" value="" style="ellipse;whiteSpace=wrap;html=1;fillColor=none;rotation=90;" vertex="1" parent="1">
          <mxGeometry x="-395" y="1005" width="10" height="10" as="geometry" />
        </mxCell>
        <mxCell id="_4XBoN6raB5tsVcWmZe8-363" value="" style="ellipse;whiteSpace=wrap;html=1;fillColor=none;rotation=90;" vertex="1" parent="1">
          <mxGeometry x="-395" y="1065" width="10" height="10" as="geometry" />
        </mxCell>
        <mxCell id="_4XBoN6raB5tsVcWmZe8-364" value="" style="ellipse;whiteSpace=wrap;html=1;fillColor=none;rotation=90;" vertex="1" parent="1">
          <mxGeometry x="-415" y="1005" width="10" height="10" as="geometry" />
        </mxCell>
        <mxCell id="_4XBoN6raB5tsVcWmZe8-365" value="" style="ellipse;whiteSpace=wrap;html=1;fillColor=none;rotation=90;" vertex="1" parent="1">
          <mxGeometry x="-415" y="1065" width="10" height="10" as="geometry" />
        </mxCell>
        <mxCell id="_4XBoN6raB5tsVcWmZe8-366" value="" style="ellipse;whiteSpace=wrap;html=1;fillColor=none;rotation=90;" vertex="1" parent="1">
          <mxGeometry x="-435" y="1005" width="10" height="10" as="geometry" />
        </mxCell>
        <mxCell id="_4XBoN6raB5tsVcWmZe8-367" value="" style="ellipse;whiteSpace=wrap;html=1;fillColor=none;rotation=90;" vertex="1" parent="1">
          <mxGeometry x="-435" y="1065" width="10" height="10" as="geometry" />
        </mxCell>
        <mxCell id="_4XBoN6raB5tsVcWmZe8-368" value="" style="ellipse;whiteSpace=wrap;html=1;fillColor=none;rotation=90;" vertex="1" parent="1">
          <mxGeometry x="-455" y="1005" width="10" height="10" as="geometry" />
        </mxCell>
        <mxCell id="_4XBoN6raB5tsVcWmZe8-369" value="" style="ellipse;whiteSpace=wrap;html=1;fillColor=none;rotation=90;" vertex="1" parent="1">
          <mxGeometry x="-455" y="1065" width="10" height="10" as="geometry" />
        </mxCell>
        <mxCell id="_4XBoN6raB5tsVcWmZe8-370" value="" style="ellipse;whiteSpace=wrap;html=1;fillColor=none;rotation=90;" vertex="1" parent="1">
          <mxGeometry x="-475" y="1005" width="10" height="10" as="geometry" />
        </mxCell>
        <mxCell id="_4XBoN6raB5tsVcWmZe8-371" value="" style="ellipse;whiteSpace=wrap;html=1;fillColor=none;rotation=90;" vertex="1" parent="1">
          <mxGeometry x="-475" y="1065" width="10" height="10" as="geometry" />
        </mxCell>
        <mxCell id="_4XBoN6raB5tsVcWmZe8-372" value="" style="ellipse;whiteSpace=wrap;html=1;fillColor=none;rotation=90;" vertex="1" parent="1">
          <mxGeometry x="-495" y="1005" width="10" height="10" as="geometry" />
        </mxCell>
        <mxCell id="_4XBoN6raB5tsVcWmZe8-373" value="" style="ellipse;whiteSpace=wrap;html=1;fillColor=none;rotation=90;" vertex="1" parent="1">
          <mxGeometry x="-495" y="1065" width="10" height="10" as="geometry" />
        </mxCell>
        <mxCell id="_4XBoN6raB5tsVcWmZe8-374" value="" style="ellipse;whiteSpace=wrap;html=1;fillColor=none;rotation=90;" vertex="1" parent="1">
          <mxGeometry x="-515" y="1005" width="10" height="10" as="geometry" />
        </mxCell>
        <mxCell id="_4XBoN6raB5tsVcWmZe8-375" value="" style="ellipse;whiteSpace=wrap;html=1;fillColor=none;rotation=90;" vertex="1" parent="1">
          <mxGeometry x="-515" y="1065" width="10" height="10" as="geometry" />
        </mxCell>
        <mxCell id="_4XBoN6raB5tsVcWmZe8-376" value="" style="ellipse;whiteSpace=wrap;html=1;fillColor=none;rotation=90;" vertex="1" parent="1">
          <mxGeometry x="-535" y="1005" width="10" height="10" as="geometry" />
        </mxCell>
        <mxCell id="_4XBoN6raB5tsVcWmZe8-377" value="" style="ellipse;whiteSpace=wrap;html=1;fillColor=none;rotation=90;" vertex="1" parent="1">
          <mxGeometry x="-535" y="1065" width="10" height="10" as="geometry" />
        </mxCell>
        <mxCell id="_4XBoN6raB5tsVcWmZe8-378" value="" style="ellipse;whiteSpace=wrap;html=1;fillColor=#d8dee9;rotation=90;" vertex="1" parent="1">
          <mxGeometry x="-555" y="1005" width="10" height="10" as="geometry" />
        </mxCell>
        <mxCell id="_4XBoN6raB5tsVcWmZe8-379" value="" style="ellipse;whiteSpace=wrap;html=1;fillColor=none;rotation=90;" vertex="1" parent="1">
          <mxGeometry x="-555" y="1065" width="10" height="10" as="geometry" />
        </mxCell>
        <mxCell id="_4XBoN6raB5tsVcWmZe8-397" value="5V" style="rounded=0;whiteSpace=wrap;html=1;spacingLeft=0;align=center;fillColor=none;" vertex="1" parent="1">
          <mxGeometry x="-380" y="1040" width="20" height="20" as="geometry" />
        </mxCell>
        <mxCell id="_4XBoN6raB5tsVcWmZe8-398" value="1" style="rounded=0;whiteSpace=wrap;html=1;spacingLeft=0;align=center;fillColor=none;" vertex="1" parent="1">
          <mxGeometry x="-400" y="1020" width="20" height="20" as="geometry" />
        </mxCell>
        <mxCell id="_4XBoN6raB5tsVcWmZe8-399" value="2" style="rounded=0;whiteSpace=wrap;html=1;spacingLeft=0;align=center;fillColor=none;" vertex="1" parent="1">
          <mxGeometry x="-400" y="1040" width="20" height="20" as="geometry" />
        </mxCell>
        <mxCell id="_4XBoN6raB5tsVcWmZe8-400" value="3" style="rounded=0;whiteSpace=wrap;html=1;spacingLeft=0;align=center;fillColor=none;" vertex="1" parent="1">
          <mxGeometry x="-420" y="1020" width="20" height="20" as="geometry" />
        </mxCell>
        <mxCell id="_4XBoN6raB5tsVcWmZe8-401" value="5" style="rounded=0;whiteSpace=wrap;html=1;spacingLeft=0;align=center;fillColor=none;" vertex="1" parent="1">
          <mxGeometry x="-440" y="1020" width="20" height="20" as="geometry" />
        </mxCell>
        <mxCell id="_4XBoN6raB5tsVcWmZe8-402" value="7" style="rounded=0;whiteSpace=wrap;html=1;spacingLeft=0;align=center;fillColor=none;" vertex="1" parent="1">
          <mxGeometry x="-460" y="1020" width="20" height="20" as="geometry" />
        </mxCell>
        <mxCell id="_4XBoN6raB5tsVcWmZe8-403" value="9" style="rounded=0;whiteSpace=wrap;html=1;spacingLeft=0;align=center;fillColor=none;" vertex="1" parent="1">
          <mxGeometry x="-480" y="1020" width="20" height="20" as="geometry" />
        </mxCell>
        <mxCell id="_4XBoN6raB5tsVcWmZe8-404" value="11" style="rounded=0;whiteSpace=wrap;html=1;spacingLeft=0;align=center;fillColor=none;" vertex="1" parent="1">
          <mxGeometry x="-500" y="1020" width="20" height="20" as="geometry" />
        </mxCell>
        <mxCell id="_4XBoN6raB5tsVcWmZe8-405" value="13" style="rounded=0;whiteSpace=wrap;html=1;spacingLeft=0;align=center;fillColor=none;" vertex="1" parent="1">
          <mxGeometry x="-520" y="1020" width="20" height="20" as="geometry" />
        </mxCell>
        <mxCell id="_4XBoN6raB5tsVcWmZe8-406" value="15" style="rounded=0;whiteSpace=wrap;html=1;spacingLeft=0;align=center;fillColor=none;" vertex="1" parent="1">
          <mxGeometry x="-540" y="1020" width="20" height="20" as="geometry" />
        </mxCell>
        <mxCell id="_4XBoN6raB5tsVcWmZe8-407" value="&lt;font style=&quot;font-size: 8px;&quot;&gt;GND&lt;/font&gt;" style="rounded=0;whiteSpace=wrap;html=1;spacingLeft=0;align=center;fillColor=none;" vertex="1" parent="1">
          <mxGeometry x="-560" y="1020" width="20" height="20" as="geometry" />
        </mxCell>
        <mxCell id="_4XBoN6raB5tsVcWmZe8-408" value="4" style="rounded=0;whiteSpace=wrap;html=1;spacingLeft=0;align=center;fillColor=none;" vertex="1" parent="1">
          <mxGeometry x="-420" y="1040" width="20" height="20" as="geometry" />
        </mxCell>
        <mxCell id="_4XBoN6raB5tsVcWmZe8-409" value="6" style="rounded=0;whiteSpace=wrap;html=1;spacingLeft=0;align=center;fillColor=none;" vertex="1" parent="1">
          <mxGeometry x="-440" y="1040" width="20" height="20" as="geometry" />
        </mxCell>
        <mxCell id="_4XBoN6raB5tsVcWmZe8-410" value="8" style="rounded=0;whiteSpace=wrap;html=1;spacingLeft=0;align=center;fillColor=none;" vertex="1" parent="1">
          <mxGeometry x="-460" y="1040" width="20" height="20" as="geometry" />
        </mxCell>
        <mxCell id="_4XBoN6raB5tsVcWmZe8-411" value="10" style="rounded=0;whiteSpace=wrap;html=1;spacingLeft=0;align=center;fillColor=none;" vertex="1" parent="1">
          <mxGeometry x="-480" y="1040" width="20" height="20" as="geometry" />
        </mxCell>
        <mxCell id="_4XBoN6raB5tsVcWmZe8-412" value="12" style="rounded=0;whiteSpace=wrap;html=1;spacingLeft=0;align=center;fillColor=none;" vertex="1" parent="1">
          <mxGeometry x="-500" y="1040" width="20" height="20" as="geometry" />
        </mxCell>
        <mxCell id="_4XBoN6raB5tsVcWmZe8-413" value="14" style="rounded=0;whiteSpace=wrap;html=1;spacingLeft=0;align=center;fillColor=none;" vertex="1" parent="1">
          <mxGeometry x="-520" y="1040" width="20" height="20" as="geometry" />
        </mxCell>
        <mxCell id="_4XBoN6raB5tsVcWmZe8-414" value="16" style="rounded=0;whiteSpace=wrap;html=1;spacingLeft=0;align=center;fillColor=none;" vertex="1" parent="1">
          <mxGeometry x="-540" y="1040" width="20" height="20" as="geometry" />
        </mxCell>
        <mxCell id="_4XBoN6raB5tsVcWmZe8-415" value="&lt;font style=&quot;font-size: 8px;&quot;&gt;GND&lt;/font&gt;" style="rounded=0;whiteSpace=wrap;html=1;spacingLeft=0;align=center;fillColor=none;" vertex="1" parent="1">
          <mxGeometry x="-560" y="1040" width="20" height="20" as="geometry" />
        </mxCell>
        <mxCell id="_4XBoN6raB5tsVcWmZe8-453" value="JD8" style="rounded=0;whiteSpace=wrap;html=1;rotation=-90;verticalAlign=top;spacing=0;fillColor=none;" vertex="1" parent="1">
          <mxGeometry x="-413.5" y="1190" width="50" height="60" as="geometry" />
        </mxCell>
        <mxCell id="_4XBoN6raB5tsVcWmZe8-443" value="" style="rounded=0;whiteSpace=wrap;html=1;fillColor=none;rotation=90;" vertex="1" parent="1">
          <mxGeometry x="-383.5" y="1200" width="20" height="20" as="geometry" />
        </mxCell>
        <mxCell id="_4XBoN6raB5tsVcWmZe8-583" style="edgeStyle=orthogonalEdgeStyle;rounded=0;orthogonalLoop=1;jettySize=auto;html=1;entryX=0;entryY=0.25;entryDx=0;entryDy=0;startArrow=none;startFill=0;endArrow=none;endFill=0;dashed=1;dashPattern=1 1;" edge="1" parent="1" source="_4XBoN6raB5tsVcWmZe8-444" target="_4XBoN6raB5tsVcWmZe8-564">
          <mxGeometry relative="1" as="geometry" />
        </mxCell>
        <mxCell id="_4XBoN6raB5tsVcWmZe8-444" value="" style="ellipse;whiteSpace=wrap;html=1;fillColor=none;rotation=90;" vertex="1" parent="1">
          <mxGeometry x="-378.5" y="1205" width="10" height="10" as="geometry" />
        </mxCell>
        <mxCell id="_4XBoN6raB5tsVcWmZe8-445" value="" style="rounded=0;whiteSpace=wrap;html=1;fillColor=none;rotation=90;" vertex="1" parent="1">
          <mxGeometry x="-383.5" y="1220" width="20" height="20" as="geometry" />
        </mxCell>
        <mxCell id="_4XBoN6raB5tsVcWmZe8-584" style="edgeStyle=orthogonalEdgeStyle;rounded=0;orthogonalLoop=1;jettySize=auto;html=1;entryX=0;entryY=0.75;entryDx=0;entryDy=0;startArrow=none;startFill=0;endArrow=none;endFill=0;dashed=1;dashPattern=1 1;" edge="1" parent="1" source="_4XBoN6raB5tsVcWmZe8-446" target="_4XBoN6raB5tsVcWmZe8-564">
          <mxGeometry relative="1" as="geometry" />
        </mxCell>
        <mxCell id="_4XBoN6raB5tsVcWmZe8-446" value="" style="ellipse;whiteSpace=wrap;html=1;fillColor=none;rotation=90;" vertex="1" parent="1">
          <mxGeometry x="-378.5" y="1225" width="10" height="10" as="geometry" />
        </mxCell>
        <mxCell id="_4XBoN6raB5tsVcWmZe8-460" value="JD7" style="rounded=0;whiteSpace=wrap;html=1;rotation=-90;verticalAlign=top;spacing=0;fillColor=none;" vertex="1" parent="1">
          <mxGeometry x="-413.5" y="1240" width="50" height="60" as="geometry" />
        </mxCell>
        <mxCell id="_4XBoN6raB5tsVcWmZe8-461" value="" style="rounded=0;whiteSpace=wrap;html=1;fillColor=none;rotation=90;" vertex="1" parent="1">
          <mxGeometry x="-383.5" y="1250" width="20" height="20" as="geometry" />
        </mxCell>
        <mxCell id="_4XBoN6raB5tsVcWmZe8-586" style="edgeStyle=orthogonalEdgeStyle;rounded=0;orthogonalLoop=1;jettySize=auto;html=1;entryX=0;entryY=0.25;entryDx=0;entryDy=0;startArrow=none;startFill=0;endArrow=none;endFill=0;dashed=1;dashPattern=1 1;" edge="1" parent="1" source="_4XBoN6raB5tsVcWmZe8-462" target="_4XBoN6raB5tsVcWmZe8-565">
          <mxGeometry relative="1" as="geometry" />
        </mxCell>
        <mxCell id="_4XBoN6raB5tsVcWmZe8-462" value="" style="ellipse;whiteSpace=wrap;html=1;fillColor=none;rotation=90;" vertex="1" parent="1">
          <mxGeometry x="-378.5" y="1255" width="10" height="10" as="geometry" />
        </mxCell>
        <mxCell id="_4XBoN6raB5tsVcWmZe8-463" value="" style="rounded=0;whiteSpace=wrap;html=1;fillColor=none;rotation=90;" vertex="1" parent="1">
          <mxGeometry x="-383.5" y="1270" width="20" height="20" as="geometry" />
        </mxCell>
        <mxCell id="_4XBoN6raB5tsVcWmZe8-587" style="edgeStyle=orthogonalEdgeStyle;rounded=0;orthogonalLoop=1;jettySize=auto;html=1;entryX=0;entryY=0.75;entryDx=0;entryDy=0;startArrow=none;startFill=0;endArrow=none;endFill=0;dashed=1;dashPattern=1 1;" edge="1" parent="1" source="_4XBoN6raB5tsVcWmZe8-464" target="_4XBoN6raB5tsVcWmZe8-565">
          <mxGeometry relative="1" as="geometry" />
        </mxCell>
        <mxCell id="_4XBoN6raB5tsVcWmZe8-464" value="" style="ellipse;whiteSpace=wrap;html=1;fillColor=none;rotation=90;" vertex="1" parent="1">
          <mxGeometry x="-378.5" y="1275" width="10" height="10" as="geometry" />
        </mxCell>
        <mxCell id="_4XBoN6raB5tsVcWmZe8-465" value="JD6" style="rounded=0;whiteSpace=wrap;html=1;rotation=-90;verticalAlign=top;spacing=0;fillColor=none;" vertex="1" parent="1">
          <mxGeometry x="-413.5" y="1290" width="50" height="60" as="geometry" />
        </mxCell>
        <mxCell id="_4XBoN6raB5tsVcWmZe8-466" value="" style="rounded=0;whiteSpace=wrap;html=1;fillColor=none;rotation=90;" vertex="1" parent="1">
          <mxGeometry x="-383.5" y="1300" width="20" height="20" as="geometry" />
        </mxCell>
        <mxCell id="_4XBoN6raB5tsVcWmZe8-588" style="edgeStyle=orthogonalEdgeStyle;rounded=0;orthogonalLoop=1;jettySize=auto;html=1;entryX=0;entryY=0.25;entryDx=0;entryDy=0;startArrow=none;startFill=0;endArrow=none;endFill=0;dashed=1;dashPattern=1 1;" edge="1" parent="1" source="_4XBoN6raB5tsVcWmZe8-467" target="_4XBoN6raB5tsVcWmZe8-566">
          <mxGeometry relative="1" as="geometry" />
        </mxCell>
        <mxCell id="_4XBoN6raB5tsVcWmZe8-467" value="" style="ellipse;whiteSpace=wrap;html=1;fillColor=none;rotation=90;" vertex="1" parent="1">
          <mxGeometry x="-378.5" y="1305" width="10" height="10" as="geometry" />
        </mxCell>
        <mxCell id="_4XBoN6raB5tsVcWmZe8-468" value="" style="rounded=0;whiteSpace=wrap;html=1;fillColor=none;rotation=90;" vertex="1" parent="1">
          <mxGeometry x="-383.5" y="1320" width="20" height="20" as="geometry" />
        </mxCell>
        <mxCell id="_4XBoN6raB5tsVcWmZe8-589" style="edgeStyle=orthogonalEdgeStyle;rounded=0;orthogonalLoop=1;jettySize=auto;html=1;entryX=0;entryY=0.75;entryDx=0;entryDy=0;startArrow=none;startFill=0;endArrow=none;endFill=0;dashed=1;dashPattern=1 1;" edge="1" parent="1" source="_4XBoN6raB5tsVcWmZe8-469" target="_4XBoN6raB5tsVcWmZe8-566">
          <mxGeometry relative="1" as="geometry" />
        </mxCell>
        <mxCell id="_4XBoN6raB5tsVcWmZe8-469" value="" style="ellipse;whiteSpace=wrap;html=1;fillColor=none;rotation=90;" vertex="1" parent="1">
          <mxGeometry x="-378.5" y="1325" width="10" height="10" as="geometry" />
        </mxCell>
        <mxCell id="_4XBoN6raB5tsVcWmZe8-470" value="JD5" style="rounded=0;whiteSpace=wrap;html=1;rotation=-90;verticalAlign=top;spacing=0;fillColor=none;" vertex="1" parent="1">
          <mxGeometry x="-413.5" y="1340" width="50" height="60" as="geometry" />
        </mxCell>
        <mxCell id="_4XBoN6raB5tsVcWmZe8-471" value="" style="rounded=0;whiteSpace=wrap;html=1;fillColor=none;rotation=90;" vertex="1" parent="1">
          <mxGeometry x="-383.5" y="1350" width="20" height="20" as="geometry" />
        </mxCell>
        <mxCell id="_4XBoN6raB5tsVcWmZe8-590" style="edgeStyle=orthogonalEdgeStyle;rounded=0;orthogonalLoop=1;jettySize=auto;html=1;entryX=0;entryY=0.25;entryDx=0;entryDy=0;startArrow=none;startFill=0;endArrow=none;endFill=0;dashed=1;dashPattern=1 1;" edge="1" parent="1" source="_4XBoN6raB5tsVcWmZe8-472" target="_4XBoN6raB5tsVcWmZe8-567">
          <mxGeometry relative="1" as="geometry" />
        </mxCell>
        <mxCell id="_4XBoN6raB5tsVcWmZe8-472" value="" style="ellipse;whiteSpace=wrap;html=1;fillColor=none;rotation=90;" vertex="1" parent="1">
          <mxGeometry x="-378.5" y="1355" width="10" height="10" as="geometry" />
        </mxCell>
        <mxCell id="_4XBoN6raB5tsVcWmZe8-473" value="" style="rounded=0;whiteSpace=wrap;html=1;fillColor=none;rotation=90;" vertex="1" parent="1">
          <mxGeometry x="-383.5" y="1370" width="20" height="20" as="geometry" />
        </mxCell>
        <mxCell id="_4XBoN6raB5tsVcWmZe8-591" style="edgeStyle=orthogonalEdgeStyle;rounded=0;orthogonalLoop=1;jettySize=auto;html=1;entryX=0;entryY=0.75;entryDx=0;entryDy=0;startArrow=none;startFill=0;endArrow=none;endFill=0;dashed=1;dashPattern=1 1;" edge="1" parent="1" source="_4XBoN6raB5tsVcWmZe8-474" target="_4XBoN6raB5tsVcWmZe8-567">
          <mxGeometry relative="1" as="geometry" />
        </mxCell>
        <mxCell id="_4XBoN6raB5tsVcWmZe8-474" value="" style="ellipse;whiteSpace=wrap;html=1;fillColor=none;rotation=90;" vertex="1" parent="1">
          <mxGeometry x="-378.5" y="1375" width="10" height="10" as="geometry" />
        </mxCell>
        <mxCell id="_4XBoN6raB5tsVcWmZe8-475" value="JD4" style="rounded=0;whiteSpace=wrap;html=1;rotation=-90;verticalAlign=top;spacing=0;fillColor=none;" vertex="1" parent="1">
          <mxGeometry x="-413.5" y="1390" width="50" height="60" as="geometry" />
        </mxCell>
        <mxCell id="_4XBoN6raB5tsVcWmZe8-476" value="" style="rounded=0;whiteSpace=wrap;html=1;fillColor=none;rotation=90;" vertex="1" parent="1">
          <mxGeometry x="-383.5" y="1400" width="20" height="20" as="geometry" />
        </mxCell>
        <mxCell id="_4XBoN6raB5tsVcWmZe8-592" style="edgeStyle=orthogonalEdgeStyle;rounded=0;orthogonalLoop=1;jettySize=auto;html=1;entryX=0;entryY=0.25;entryDx=0;entryDy=0;startArrow=none;startFill=0;endArrow=none;endFill=0;dashed=1;dashPattern=1 1;" edge="1" parent="1" source="_4XBoN6raB5tsVcWmZe8-477" target="_4XBoN6raB5tsVcWmZe8-568">
          <mxGeometry relative="1" as="geometry" />
        </mxCell>
        <mxCell id="_4XBoN6raB5tsVcWmZe8-477" value="" style="ellipse;whiteSpace=wrap;html=1;fillColor=none;rotation=90;" vertex="1" parent="1">
          <mxGeometry x="-378.5" y="1405" width="10" height="10" as="geometry" />
        </mxCell>
        <mxCell id="_4XBoN6raB5tsVcWmZe8-478" value="" style="rounded=0;whiteSpace=wrap;html=1;fillColor=none;rotation=90;" vertex="1" parent="1">
          <mxGeometry x="-383.5" y="1420" width="20" height="20" as="geometry" />
        </mxCell>
        <mxCell id="_4XBoN6raB5tsVcWmZe8-593" style="edgeStyle=orthogonalEdgeStyle;rounded=0;orthogonalLoop=1;jettySize=auto;html=1;entryX=0;entryY=0.75;entryDx=0;entryDy=0;startArrow=none;startFill=0;endArrow=none;endFill=0;dashed=1;dashPattern=1 1;" edge="1" parent="1" source="_4XBoN6raB5tsVcWmZe8-479" target="_4XBoN6raB5tsVcWmZe8-568">
          <mxGeometry relative="1" as="geometry" />
        </mxCell>
        <mxCell id="_4XBoN6raB5tsVcWmZe8-479" value="" style="ellipse;whiteSpace=wrap;html=1;fillColor=none;rotation=90;" vertex="1" parent="1">
          <mxGeometry x="-378.5" y="1425" width="10" height="10" as="geometry" />
        </mxCell>
        <mxCell id="_4XBoN6raB5tsVcWmZe8-480" value="JD3" style="rounded=0;whiteSpace=wrap;html=1;rotation=-90;verticalAlign=top;spacing=0;fillColor=none;" vertex="1" parent="1">
          <mxGeometry x="-413.5" y="1440" width="50" height="60" as="geometry" />
        </mxCell>
        <mxCell id="_4XBoN6raB5tsVcWmZe8-481" value="" style="rounded=0;whiteSpace=wrap;html=1;fillColor=none;rotation=90;" vertex="1" parent="1">
          <mxGeometry x="-383.5" y="1450" width="20" height="20" as="geometry" />
        </mxCell>
        <mxCell id="_4XBoN6raB5tsVcWmZe8-594" style="edgeStyle=orthogonalEdgeStyle;rounded=0;orthogonalLoop=1;jettySize=auto;html=1;entryX=0;entryY=0.25;entryDx=0;entryDy=0;startArrow=none;startFill=0;endArrow=none;endFill=0;dashed=1;dashPattern=1 1;" edge="1" parent="1" source="_4XBoN6raB5tsVcWmZe8-482" target="_4XBoN6raB5tsVcWmZe8-569">
          <mxGeometry relative="1" as="geometry" />
        </mxCell>
        <mxCell id="_4XBoN6raB5tsVcWmZe8-482" value="" style="ellipse;whiteSpace=wrap;html=1;fillColor=none;rotation=90;" vertex="1" parent="1">
          <mxGeometry x="-378.5" y="1455" width="10" height="10" as="geometry" />
        </mxCell>
        <mxCell id="_4XBoN6raB5tsVcWmZe8-483" value="" style="rounded=0;whiteSpace=wrap;html=1;fillColor=none;rotation=90;" vertex="1" parent="1">
          <mxGeometry x="-383.5" y="1470" width="20" height="20" as="geometry" />
        </mxCell>
        <mxCell id="_4XBoN6raB5tsVcWmZe8-595" style="edgeStyle=orthogonalEdgeStyle;rounded=0;orthogonalLoop=1;jettySize=auto;html=1;entryX=0;entryY=0.75;entryDx=0;entryDy=0;startArrow=none;startFill=0;endArrow=none;endFill=0;dashed=1;dashPattern=1 1;" edge="1" parent="1" source="_4XBoN6raB5tsVcWmZe8-484" target="_4XBoN6raB5tsVcWmZe8-569">
          <mxGeometry relative="1" as="geometry" />
        </mxCell>
        <mxCell id="_4XBoN6raB5tsVcWmZe8-484" value="" style="ellipse;whiteSpace=wrap;html=1;fillColor=none;rotation=90;" vertex="1" parent="1">
          <mxGeometry x="-378.5" y="1475" width="10" height="10" as="geometry" />
        </mxCell>
        <mxCell id="_4XBoN6raB5tsVcWmZe8-485" value="JD2" style="rounded=0;whiteSpace=wrap;html=1;rotation=-90;verticalAlign=top;spacing=0;fillColor=none;" vertex="1" parent="1">
          <mxGeometry x="-413.5" y="1490" width="50" height="60" as="geometry" />
        </mxCell>
        <mxCell id="_4XBoN6raB5tsVcWmZe8-486" value="" style="rounded=0;whiteSpace=wrap;html=1;fillColor=none;rotation=90;" vertex="1" parent="1">
          <mxGeometry x="-383.5" y="1500" width="20" height="20" as="geometry" />
        </mxCell>
        <mxCell id="_4XBoN6raB5tsVcWmZe8-596" style="edgeStyle=orthogonalEdgeStyle;rounded=0;orthogonalLoop=1;jettySize=auto;html=1;entryX=0;entryY=0.25;entryDx=0;entryDy=0;startArrow=none;startFill=0;endArrow=none;endFill=0;dashed=1;dashPattern=1 1;" edge="1" parent="1" source="_4XBoN6raB5tsVcWmZe8-487" target="_4XBoN6raB5tsVcWmZe8-570">
          <mxGeometry relative="1" as="geometry" />
        </mxCell>
        <mxCell id="_4XBoN6raB5tsVcWmZe8-487" value="" style="ellipse;whiteSpace=wrap;html=1;fillColor=none;rotation=90;" vertex="1" parent="1">
          <mxGeometry x="-378.5" y="1505" width="10" height="10" as="geometry" />
        </mxCell>
        <mxCell id="_4XBoN6raB5tsVcWmZe8-488" value="" style="rounded=0;whiteSpace=wrap;html=1;fillColor=none;rotation=90;" vertex="1" parent="1">
          <mxGeometry x="-383.5" y="1520" width="20" height="20" as="geometry" />
        </mxCell>
        <mxCell id="_4XBoN6raB5tsVcWmZe8-597" style="edgeStyle=orthogonalEdgeStyle;rounded=0;orthogonalLoop=1;jettySize=auto;html=1;entryX=0;entryY=0.75;entryDx=0;entryDy=0;startArrow=none;startFill=0;endArrow=none;endFill=0;dashed=1;dashPattern=1 1;" edge="1" parent="1" source="_4XBoN6raB5tsVcWmZe8-489" target="_4XBoN6raB5tsVcWmZe8-570">
          <mxGeometry relative="1" as="geometry" />
        </mxCell>
        <mxCell id="_4XBoN6raB5tsVcWmZe8-489" value="" style="ellipse;whiteSpace=wrap;html=1;fillColor=none;rotation=90;" vertex="1" parent="1">
          <mxGeometry x="-378.5" y="1525" width="10" height="10" as="geometry" />
        </mxCell>
        <mxCell id="_4XBoN6raB5tsVcWmZe8-490" value="JD1" style="rounded=0;whiteSpace=wrap;html=1;rotation=-90;verticalAlign=top;spacing=0;fillColor=none;" vertex="1" parent="1">
          <mxGeometry x="-413.5" y="1540" width="50" height="60" as="geometry" />
        </mxCell>
        <mxCell id="_4XBoN6raB5tsVcWmZe8-491" value="" style="rounded=0;whiteSpace=wrap;html=1;fillColor=none;rotation=90;" vertex="1" parent="1">
          <mxGeometry x="-383.5" y="1550" width="20" height="20" as="geometry" />
        </mxCell>
        <mxCell id="_4XBoN6raB5tsVcWmZe8-599" style="edgeStyle=orthogonalEdgeStyle;rounded=0;orthogonalLoop=1;jettySize=auto;html=1;entryX=0;entryY=0.25;entryDx=0;entryDy=0;startArrow=none;startFill=0;endArrow=none;endFill=0;dashed=1;dashPattern=1 1;" edge="1" parent="1" source="_4XBoN6raB5tsVcWmZe8-492" target="_4XBoN6raB5tsVcWmZe8-598">
          <mxGeometry relative="1" as="geometry" />
        </mxCell>
        <mxCell id="_4XBoN6raB5tsVcWmZe8-492" value="" style="ellipse;whiteSpace=wrap;html=1;fillColor=none;rotation=90;" vertex="1" parent="1">
          <mxGeometry x="-378.5" y="1555" width="10" height="10" as="geometry" />
        </mxCell>
        <mxCell id="_4XBoN6raB5tsVcWmZe8-493" value="" style="rounded=0;whiteSpace=wrap;html=1;fillColor=none;rotation=90;" vertex="1" parent="1">
          <mxGeometry x="-383.5" y="1570" width="20" height="20" as="geometry" />
        </mxCell>
        <mxCell id="_4XBoN6raB5tsVcWmZe8-600" style="edgeStyle=orthogonalEdgeStyle;rounded=0;orthogonalLoop=1;jettySize=auto;html=1;entryX=0;entryY=0.75;entryDx=0;entryDy=0;startArrow=none;startFill=0;endArrow=none;endFill=0;dashed=1;dashPattern=1 1;" edge="1" parent="1" source="_4XBoN6raB5tsVcWmZe8-494" target="_4XBoN6raB5tsVcWmZe8-598">
          <mxGeometry relative="1" as="geometry" />
        </mxCell>
        <mxCell id="_4XBoN6raB5tsVcWmZe8-494" value="" style="ellipse;whiteSpace=wrap;html=1;fillColor=none;rotation=90;" vertex="1" parent="1">
          <mxGeometry x="-378.5" y="1575" width="10" height="10" as="geometry" />
        </mxCell>
        <mxCell id="_4XBoN6raB5tsVcWmZe8-495" value="JD9" style="rounded=0;whiteSpace=wrap;html=1;rotation=-90;verticalAlign=bottom;spacing=0;fillColor=none;spacingBottom=4;" vertex="1" parent="1">
          <mxGeometry x="-553.5" y="1190" width="50" height="60" as="geometry" />
        </mxCell>
        <mxCell id="_4XBoN6raB5tsVcWmZe8-496" value="" style="rounded=0;whiteSpace=wrap;html=1;fillColor=none;rotation=90;" vertex="1" parent="1">
          <mxGeometry x="-553.5" y="1200" width="20" height="20" as="geometry" />
        </mxCell>
        <mxCell id="_4XBoN6raB5tsVcWmZe8-497" value="" style="ellipse;whiteSpace=wrap;html=1;fillColor=none;rotation=90;" vertex="1" parent="1">
          <mxGeometry x="-548.5" y="1205" width="10" height="10" as="geometry" />
        </mxCell>
        <mxCell id="_4XBoN6raB5tsVcWmZe8-498" value="" style="rounded=0;whiteSpace=wrap;html=1;fillColor=none;rotation=90;" vertex="1" parent="1">
          <mxGeometry x="-553.5" y="1220" width="20" height="20" as="geometry" />
        </mxCell>
        <mxCell id="_4XBoN6raB5tsVcWmZe8-554" style="edgeStyle=orthogonalEdgeStyle;rounded=0;orthogonalLoop=1;jettySize=auto;html=1;entryX=1;entryY=0.75;entryDx=0;entryDy=0;endArrow=none;endFill=0;startArrow=none;startFill=0;dashed=1;dashPattern=1 1;" edge="1" parent="1" source="_4XBoN6raB5tsVcWmZe8-499" target="_4XBoN6raB5tsVcWmZe8-552">
          <mxGeometry relative="1" as="geometry" />
        </mxCell>
        <mxCell id="_4XBoN6raB5tsVcWmZe8-499" value="" style="ellipse;whiteSpace=wrap;html=1;fillColor=none;rotation=90;" vertex="1" parent="1">
          <mxGeometry x="-548.5" y="1225" width="10" height="10" as="geometry" />
        </mxCell>
        <mxCell id="_4XBoN6raB5tsVcWmZe8-500" value="JD10" style="rounded=0;whiteSpace=wrap;html=1;rotation=-90;verticalAlign=bottom;spacing=0;fillColor=none;spacingBottom=4;" vertex="1" parent="1">
          <mxGeometry x="-553.5" y="1240" width="50" height="60" as="geometry" />
        </mxCell>
        <mxCell id="_4XBoN6raB5tsVcWmZe8-501" value="" style="rounded=0;whiteSpace=wrap;html=1;fillColor=none;rotation=90;" vertex="1" parent="1">
          <mxGeometry x="-553.5" y="1250" width="20" height="20" as="geometry" />
        </mxCell>
        <mxCell id="_4XBoN6raB5tsVcWmZe8-571" style="edgeStyle=orthogonalEdgeStyle;rounded=0;orthogonalLoop=1;jettySize=auto;html=1;entryX=1;entryY=0.25;entryDx=0;entryDy=0;startArrow=none;startFill=0;endArrow=none;endFill=0;dashed=1;dashPattern=1 1;" edge="1" parent="1" source="_4XBoN6raB5tsVcWmZe8-502" target="_4XBoN6raB5tsVcWmZe8-555">
          <mxGeometry relative="1" as="geometry" />
        </mxCell>
        <mxCell id="_4XBoN6raB5tsVcWmZe8-502" value="" style="ellipse;whiteSpace=wrap;html=1;fillColor=none;rotation=90;" vertex="1" parent="1">
          <mxGeometry x="-548.5" y="1255" width="10" height="10" as="geometry" />
        </mxCell>
        <mxCell id="_4XBoN6raB5tsVcWmZe8-503" value="" style="rounded=0;whiteSpace=wrap;html=1;fillColor=none;rotation=90;" vertex="1" parent="1">
          <mxGeometry x="-553.5" y="1270" width="20" height="20" as="geometry" />
        </mxCell>
        <mxCell id="_4XBoN6raB5tsVcWmZe8-572" style="edgeStyle=orthogonalEdgeStyle;rounded=0;orthogonalLoop=1;jettySize=auto;html=1;entryX=1;entryY=0.75;entryDx=0;entryDy=0;startArrow=none;startFill=0;endArrow=none;endFill=0;dashed=1;dashPattern=1 1;" edge="1" parent="1" source="_4XBoN6raB5tsVcWmZe8-504" target="_4XBoN6raB5tsVcWmZe8-555">
          <mxGeometry relative="1" as="geometry" />
        </mxCell>
        <mxCell id="_4XBoN6raB5tsVcWmZe8-504" value="" style="ellipse;whiteSpace=wrap;html=1;fillColor=none;rotation=90;" vertex="1" parent="1">
          <mxGeometry x="-548.5" y="1275" width="10" height="10" as="geometry" />
        </mxCell>
        <mxCell id="_4XBoN6raB5tsVcWmZe8-505" value="JD11" style="rounded=0;whiteSpace=wrap;html=1;rotation=-90;verticalAlign=bottom;spacing=0;fillColor=none;spacingBottom=4;" vertex="1" parent="1">
          <mxGeometry x="-553.5" y="1290" width="50" height="60" as="geometry" />
        </mxCell>
        <mxCell id="_4XBoN6raB5tsVcWmZe8-506" value="" style="rounded=0;whiteSpace=wrap;html=1;fillColor=none;rotation=90;" vertex="1" parent="1">
          <mxGeometry x="-553.5" y="1300" width="20" height="20" as="geometry" />
        </mxCell>
        <mxCell id="_4XBoN6raB5tsVcWmZe8-573" style="edgeStyle=orthogonalEdgeStyle;rounded=0;orthogonalLoop=1;jettySize=auto;html=1;entryX=1;entryY=0.25;entryDx=0;entryDy=0;startArrow=none;startFill=0;endArrow=none;endFill=0;dashed=1;dashPattern=1 1;" edge="1" parent="1" source="_4XBoN6raB5tsVcWmZe8-507" target="_4XBoN6raB5tsVcWmZe8-556">
          <mxGeometry relative="1" as="geometry" />
        </mxCell>
        <mxCell id="_4XBoN6raB5tsVcWmZe8-507" value="" style="ellipse;whiteSpace=wrap;html=1;fillColor=none;rotation=90;" vertex="1" parent="1">
          <mxGeometry x="-548.5" y="1305" width="10" height="10" as="geometry" />
        </mxCell>
        <mxCell id="_4XBoN6raB5tsVcWmZe8-508" value="" style="rounded=0;whiteSpace=wrap;html=1;fillColor=none;rotation=90;" vertex="1" parent="1">
          <mxGeometry x="-553.5" y="1320" width="20" height="20" as="geometry" />
        </mxCell>
        <mxCell id="_4XBoN6raB5tsVcWmZe8-574" style="edgeStyle=orthogonalEdgeStyle;rounded=0;orthogonalLoop=1;jettySize=auto;html=1;entryX=1;entryY=0.75;entryDx=0;entryDy=0;startArrow=none;startFill=0;endArrow=none;endFill=0;dashed=1;dashPattern=1 1;" edge="1" parent="1" source="_4XBoN6raB5tsVcWmZe8-509" target="_4XBoN6raB5tsVcWmZe8-556">
          <mxGeometry relative="1" as="geometry" />
        </mxCell>
        <mxCell id="_4XBoN6raB5tsVcWmZe8-509" value="" style="ellipse;whiteSpace=wrap;html=1;fillColor=none;rotation=90;" vertex="1" parent="1">
          <mxGeometry x="-548.5" y="1325" width="10" height="10" as="geometry" />
        </mxCell>
        <mxCell id="_4XBoN6raB5tsVcWmZe8-510" value="JD12" style="rounded=0;whiteSpace=wrap;html=1;rotation=-90;verticalAlign=bottom;spacing=0;fillColor=none;spacingBottom=4;" vertex="1" parent="1">
          <mxGeometry x="-553.5" y="1340" width="50" height="60" as="geometry" />
        </mxCell>
        <mxCell id="_4XBoN6raB5tsVcWmZe8-511" value="" style="rounded=0;whiteSpace=wrap;html=1;fillColor=none;rotation=90;" vertex="1" parent="1">
          <mxGeometry x="-553.5" y="1350" width="20" height="20" as="geometry" />
        </mxCell>
        <mxCell id="_4XBoN6raB5tsVcWmZe8-512" value="" style="ellipse;whiteSpace=wrap;html=1;fillColor=none;rotation=90;" vertex="1" parent="1">
          <mxGeometry x="-548.5" y="1355" width="10" height="10" as="geometry" />
        </mxCell>
        <mxCell id="_4XBoN6raB5tsVcWmZe8-513" value="" style="rounded=0;whiteSpace=wrap;html=1;fillColor=none;rotation=90;" vertex="1" parent="1">
          <mxGeometry x="-553.5" y="1370" width="20" height="20" as="geometry" />
        </mxCell>
        <mxCell id="_4XBoN6raB5tsVcWmZe8-576" style="edgeStyle=orthogonalEdgeStyle;rounded=0;orthogonalLoop=1;jettySize=auto;html=1;entryX=1;entryY=0.75;entryDx=0;entryDy=0;startArrow=none;startFill=0;endArrow=none;endFill=0;dashed=1;dashPattern=1 1;" edge="1" parent="1" source="_4XBoN6raB5tsVcWmZe8-514" target="_4XBoN6raB5tsVcWmZe8-557">
          <mxGeometry relative="1" as="geometry" />
        </mxCell>
        <mxCell id="_4XBoN6raB5tsVcWmZe8-514" value="" style="ellipse;whiteSpace=wrap;html=1;fillColor=none;rotation=90;" vertex="1" parent="1">
          <mxGeometry x="-548.5" y="1375" width="10" height="10" as="geometry" />
        </mxCell>
        <mxCell id="_4XBoN6raB5tsVcWmZe8-515" value="JD13" style="rounded=0;whiteSpace=wrap;html=1;rotation=-90;verticalAlign=bottom;spacing=0;fillColor=none;spacingBottom=4;" vertex="1" parent="1">
          <mxGeometry x="-553.5" y="1390" width="50" height="60" as="geometry" />
        </mxCell>
        <mxCell id="_4XBoN6raB5tsVcWmZe8-516" value="" style="rounded=0;whiteSpace=wrap;html=1;fillColor=none;rotation=90;" vertex="1" parent="1">
          <mxGeometry x="-553.5" y="1400" width="20" height="20" as="geometry" />
        </mxCell>
        <mxCell id="_4XBoN6raB5tsVcWmZe8-577" style="edgeStyle=orthogonalEdgeStyle;rounded=0;orthogonalLoop=1;jettySize=auto;html=1;entryX=1;entryY=0.25;entryDx=0;entryDy=0;startArrow=none;startFill=0;endArrow=none;endFill=0;dashed=1;dashPattern=1 1;" edge="1" parent="1" source="_4XBoN6raB5tsVcWmZe8-517" target="_4XBoN6raB5tsVcWmZe8-561">
          <mxGeometry relative="1" as="geometry" />
        </mxCell>
        <mxCell id="_4XBoN6raB5tsVcWmZe8-517" value="" style="ellipse;whiteSpace=wrap;html=1;fillColor=none;rotation=90;" vertex="1" parent="1">
          <mxGeometry x="-548.5" y="1405" width="10" height="10" as="geometry" />
        </mxCell>
        <mxCell id="_4XBoN6raB5tsVcWmZe8-518" value="" style="rounded=0;whiteSpace=wrap;html=1;fillColor=none;rotation=90;" vertex="1" parent="1">
          <mxGeometry x="-553.5" y="1420" width="20" height="20" as="geometry" />
        </mxCell>
        <mxCell id="_4XBoN6raB5tsVcWmZe8-578" style="edgeStyle=orthogonalEdgeStyle;rounded=0;orthogonalLoop=1;jettySize=auto;html=1;entryX=1;entryY=0.75;entryDx=0;entryDy=0;startArrow=none;startFill=0;endArrow=none;endFill=0;dashed=1;dashPattern=1 1;" edge="1" parent="1" source="_4XBoN6raB5tsVcWmZe8-519" target="_4XBoN6raB5tsVcWmZe8-561">
          <mxGeometry relative="1" as="geometry" />
        </mxCell>
        <mxCell id="_4XBoN6raB5tsVcWmZe8-519" value="" style="ellipse;whiteSpace=wrap;html=1;fillColor=none;rotation=90;" vertex="1" parent="1">
          <mxGeometry x="-548.5" y="1425" width="10" height="10" as="geometry" />
        </mxCell>
        <mxCell id="_4XBoN6raB5tsVcWmZe8-520" value="JD14" style="rounded=0;whiteSpace=wrap;html=1;rotation=-90;verticalAlign=bottom;spacing=0;fillColor=none;spacingBottom=4;" vertex="1" parent="1">
          <mxGeometry x="-553.5" y="1440" width="50" height="60" as="geometry" />
        </mxCell>
        <mxCell id="_4XBoN6raB5tsVcWmZe8-521" value="" style="rounded=0;whiteSpace=wrap;html=1;fillColor=none;rotation=90;" vertex="1" parent="1">
          <mxGeometry x="-553.5" y="1450" width="20" height="20" as="geometry" />
        </mxCell>
        <mxCell id="_4XBoN6raB5tsVcWmZe8-579" style="edgeStyle=orthogonalEdgeStyle;rounded=0;orthogonalLoop=1;jettySize=auto;html=1;entryX=1;entryY=0.25;entryDx=0;entryDy=0;startArrow=none;startFill=0;endArrow=none;endFill=0;dashed=1;dashPattern=1 1;" edge="1" parent="1" source="_4XBoN6raB5tsVcWmZe8-522" target="_4XBoN6raB5tsVcWmZe8-562">
          <mxGeometry relative="1" as="geometry" />
        </mxCell>
        <mxCell id="_4XBoN6raB5tsVcWmZe8-522" value="" style="ellipse;whiteSpace=wrap;html=1;fillColor=none;rotation=90;" vertex="1" parent="1">
          <mxGeometry x="-548.5" y="1455" width="10" height="10" as="geometry" />
        </mxCell>
        <mxCell id="_4XBoN6raB5tsVcWmZe8-523" value="" style="rounded=0;whiteSpace=wrap;html=1;fillColor=none;rotation=90;" vertex="1" parent="1">
          <mxGeometry x="-553.5" y="1470" width="20" height="20" as="geometry" />
        </mxCell>
        <mxCell id="_4XBoN6raB5tsVcWmZe8-580" style="edgeStyle=orthogonalEdgeStyle;rounded=0;orthogonalLoop=1;jettySize=auto;html=1;entryX=1;entryY=0.75;entryDx=0;entryDy=0;startArrow=none;startFill=0;endArrow=none;endFill=0;dashed=1;dashPattern=1 1;" edge="1" parent="1" source="_4XBoN6raB5tsVcWmZe8-524" target="_4XBoN6raB5tsVcWmZe8-562">
          <mxGeometry relative="1" as="geometry" />
        </mxCell>
        <mxCell id="_4XBoN6raB5tsVcWmZe8-524" value="" style="ellipse;whiteSpace=wrap;html=1;fillColor=none;rotation=90;" vertex="1" parent="1">
          <mxGeometry x="-548.5" y="1475" width="10" height="10" as="geometry" />
        </mxCell>
        <mxCell id="_4XBoN6raB5tsVcWmZe8-525" value="JD15" style="rounded=0;whiteSpace=wrap;html=1;rotation=-90;verticalAlign=bottom;spacing=0;fillColor=none;spacingBottom=4;" vertex="1" parent="1">
          <mxGeometry x="-553.5" y="1490" width="50" height="60" as="geometry" />
        </mxCell>
        <mxCell id="_4XBoN6raB5tsVcWmZe8-526" value="" style="rounded=0;whiteSpace=wrap;html=1;fillColor=none;rotation=90;" vertex="1" parent="1">
          <mxGeometry x="-553.5" y="1500" width="20" height="20" as="geometry" />
        </mxCell>
        <mxCell id="_4XBoN6raB5tsVcWmZe8-581" style="edgeStyle=orthogonalEdgeStyle;rounded=0;orthogonalLoop=1;jettySize=auto;html=1;entryX=1;entryY=0.25;entryDx=0;entryDy=0;startArrow=none;startFill=0;endArrow=none;endFill=0;dashed=1;dashPattern=1 1;" edge="1" parent="1" source="_4XBoN6raB5tsVcWmZe8-527" target="_4XBoN6raB5tsVcWmZe8-563">
          <mxGeometry relative="1" as="geometry" />
        </mxCell>
        <mxCell id="_4XBoN6raB5tsVcWmZe8-527" value="" style="ellipse;whiteSpace=wrap;html=1;fillColor=none;rotation=90;" vertex="1" parent="1">
          <mxGeometry x="-548.5" y="1505" width="10" height="10" as="geometry" />
        </mxCell>
        <mxCell id="_4XBoN6raB5tsVcWmZe8-528" value="" style="rounded=0;whiteSpace=wrap;html=1;fillColor=none;rotation=90;" vertex="1" parent="1">
          <mxGeometry x="-553.5" y="1520" width="20" height="20" as="geometry" />
        </mxCell>
        <mxCell id="_4XBoN6raB5tsVcWmZe8-582" style="edgeStyle=orthogonalEdgeStyle;rounded=0;orthogonalLoop=1;jettySize=auto;html=1;entryX=1;entryY=0.75;entryDx=0;entryDy=0;startArrow=none;startFill=0;endArrow=none;endFill=0;dashed=1;dashPattern=1 1;" edge="1" parent="1" source="_4XBoN6raB5tsVcWmZe8-529" target="_4XBoN6raB5tsVcWmZe8-563">
          <mxGeometry relative="1" as="geometry" />
        </mxCell>
        <mxCell id="_4XBoN6raB5tsVcWmZe8-529" value="" style="ellipse;whiteSpace=wrap;html=1;fillColor=none;rotation=90;" vertex="1" parent="1">
          <mxGeometry x="-548.5" y="1525" width="10" height="10" as="geometry" />
        </mxCell>
        <mxCell id="_4XBoN6raB5tsVcWmZe8-530" value="JD16" style="rounded=0;whiteSpace=wrap;html=1;rotation=-90;verticalAlign=bottom;spacing=0;fillColor=none;spacingBottom=4;" vertex="1" parent="1">
          <mxGeometry x="-553.5" y="1540" width="50" height="60" as="geometry" />
        </mxCell>
        <mxCell id="_4XBoN6raB5tsVcWmZe8-531" value="" style="rounded=0;whiteSpace=wrap;html=1;fillColor=none;rotation=90;" vertex="1" parent="1">
          <mxGeometry x="-553.5" y="1550" width="20" height="20" as="geometry" />
        </mxCell>
        <mxCell id="_4XBoN6raB5tsVcWmZe8-532" value="" style="ellipse;whiteSpace=wrap;html=1;fillColor=none;rotation=90;" vertex="1" parent="1">
          <mxGeometry x="-548.5" y="1555" width="10" height="10" as="geometry" />
        </mxCell>
        <mxCell id="_4XBoN6raB5tsVcWmZe8-533" value="" style="rounded=0;whiteSpace=wrap;html=1;fillColor=none;rotation=90;" vertex="1" parent="1">
          <mxGeometry x="-553.5" y="1570" width="20" height="20" as="geometry" />
        </mxCell>
        <mxCell id="_4XBoN6raB5tsVcWmZe8-534" value="" style="ellipse;whiteSpace=wrap;html=1;fillColor=none;rotation=90;" vertex="1" parent="1">
          <mxGeometry x="-548.5" y="1575" width="10" height="10" as="geometry" />
        </mxCell>
        <mxCell id="_4XBoN6raB5tsVcWmZe8-535" value="Relays 5V" style="text;html=1;fillColor=none;align=center;verticalAlign=middle;whiteSpace=wrap;rounded=0;fontSize=18;rotation=-90;" vertex="1" parent="1">
          <mxGeometry x="-553.5" y="1375" width="193.5" height="30" as="geometry" />
        </mxCell>
        <mxCell id="_4XBoN6raB5tsVcWmZe8-540" value="" style="rounded=0;whiteSpace=wrap;html=1;fillColor=none;rotation=90;" vertex="1" parent="1">
          <mxGeometry x="-554" y="1140" width="20" height="20" as="geometry" />
        </mxCell>
        <mxCell id="_4XBoN6raB5tsVcWmZe8-544" style="edgeStyle=orthogonalEdgeStyle;rounded=0;orthogonalLoop=1;jettySize=auto;html=1;endArrow=none;endFill=0;strokeColor=#b48ead;" edge="1" parent="1" source="_4XBoN6raB5tsVcWmZe8-541">
          <mxGeometry relative="1" as="geometry">
            <mxPoint x="-800" y="1150" as="targetPoint" />
          </mxGeometry>
        </mxCell>
        <mxCell id="_4XBoN6raB5tsVcWmZe8-541" value="" style="ellipse;whiteSpace=wrap;html=1;fillColor=#B48EAD;rotation=90;" vertex="1" parent="1">
          <mxGeometry x="-549" y="1145" width="10" height="10" as="geometry" />
        </mxCell>
        <mxCell id="_4XBoN6raB5tsVcWmZe8-545" style="edgeStyle=orthogonalEdgeStyle;rounded=0;orthogonalLoop=1;jettySize=auto;html=1;exitX=0.5;exitY=1;exitDx=0;exitDy=0;endArrow=baseDash;endFill=0;" edge="1" parent="1" source="_4XBoN6raB5tsVcWmZe8-543">
          <mxGeometry relative="1" as="geometry">
            <mxPoint x="-800" y="1170" as="targetPoint" />
          </mxGeometry>
        </mxCell>
        <mxCell id="_4XBoN6raB5tsVcWmZe8-542" value="" style="rounded=0;whiteSpace=wrap;html=1;fillColor=none;rotation=90;" vertex="1" parent="1">
          <mxGeometry x="-554" y="1160" width="20" height="20" as="geometry" />
        </mxCell>
        <mxCell id="_4XBoN6raB5tsVcWmZe8-543" value="" style="ellipse;whiteSpace=wrap;html=1;fillColor=#D8DEE9;rotation=90;" vertex="1" parent="1">
          <mxGeometry x="-549" y="1165" width="10" height="10" as="geometry" />
        </mxCell>
        <mxCell id="_4XBoN6raB5tsVcWmZe8-546" value="12V" style="text;html=1;strokeColor=none;fillColor=none;align=center;verticalAlign=middle;whiteSpace=wrap;rounded=0;" vertex="1" parent="1">
          <mxGeometry x="-830" y="1142.5" width="30" height="15" as="geometry" />
        </mxCell>
        <mxCell id="_4XBoN6raB5tsVcWmZe8-548" value="" style="endArrow=none;html=1;rounded=0;" edge="1" parent="1">
          <mxGeometry width="50" height="50" relative="1" as="geometry">
            <mxPoint x="-803" y="1172.5" as="sourcePoint" />
            <mxPoint x="-803" y="1167.5" as="targetPoint" />
          </mxGeometry>
        </mxCell>
        <mxCell id="_4XBoN6raB5tsVcWmZe8-550" value="" style="endArrow=none;html=1;rounded=0;" edge="1" parent="1">
          <mxGeometry width="50" height="50" relative="1" as="geometry">
            <mxPoint x="-806" y="1171.25" as="sourcePoint" />
            <mxPoint x="-806" y="1168.75" as="targetPoint" />
          </mxGeometry>
        </mxCell>
        <mxCell id="_4XBoN6raB5tsVcWmZe8-552" value="Solenoid valve" style="rounded=0;whiteSpace=wrap;html=1;fillColor=#3b4252;" vertex="1" parent="1">
          <mxGeometry x="-680" y="1200" width="80" height="40" as="geometry" />
        </mxCell>
        <mxCell id="_4XBoN6raB5tsVcWmZe8-553" style="edgeStyle=orthogonalEdgeStyle;rounded=0;orthogonalLoop=1;jettySize=auto;html=1;entryX=1;entryY=0.25;entryDx=0;entryDy=0;endArrow=none;endFill=0;startArrow=none;startFill=0;dashed=1;dashPattern=1 1;" edge="1" parent="1" source="_4XBoN6raB5tsVcWmZe8-497" target="_4XBoN6raB5tsVcWmZe8-552">
          <mxGeometry relative="1" as="geometry">
            <Array as="points" />
          </mxGeometry>
        </mxCell>
        <mxCell id="_4XBoN6raB5tsVcWmZe8-555" value="Solenoid valve" style="rounded=0;whiteSpace=wrap;html=1;fillColor=#3b4252;" vertex="1" parent="1">
          <mxGeometry x="-680" y="1250" width="80" height="40" as="geometry" />
        </mxCell>
        <mxCell id="_4XBoN6raB5tsVcWmZe8-556" value="Solenoid valve" style="rounded=0;whiteSpace=wrap;html=1;fillColor=#3b4252;" vertex="1" parent="1">
          <mxGeometry x="-680" y="1300" width="80" height="40" as="geometry" />
        </mxCell>
        <mxCell id="_4XBoN6raB5tsVcWmZe8-557" value="Solenoid valve" style="rounded=0;whiteSpace=wrap;html=1;fillColor=#3b4252;" vertex="1" parent="1">
          <mxGeometry x="-680" y="1350" width="80" height="40" as="geometry" />
        </mxCell>
        <mxCell id="_4XBoN6raB5tsVcWmZe8-561" value="Solenoid valve" style="rounded=0;whiteSpace=wrap;html=1;fillColor=#3b4252;" vertex="1" parent="1">
          <mxGeometry x="-680" y="1400" width="80" height="40" as="geometry" />
        </mxCell>
        <mxCell id="_4XBoN6raB5tsVcWmZe8-562" value="Solenoid valve" style="rounded=0;whiteSpace=wrap;html=1;fillColor=#3b4252;" vertex="1" parent="1">
          <mxGeometry x="-680" y="1450" width="80" height="40" as="geometry" />
        </mxCell>
        <mxCell id="_4XBoN6raB5tsVcWmZe8-563" value="Solenoid valve" style="rounded=0;whiteSpace=wrap;html=1;fillColor=#3b4252;" vertex="1" parent="1">
          <mxGeometry x="-680" y="1500" width="80" height="40" as="geometry" />
        </mxCell>
        <mxCell id="_4XBoN6raB5tsVcWmZe8-564" value="Water&lt;br&gt;pump" style="rounded=0;whiteSpace=wrap;html=1;fillColor=#5e81ac;" vertex="1" parent="1">
          <mxGeometry x="-320" y="1200" width="80" height="40" as="geometry" />
        </mxCell>
        <mxCell id="_4XBoN6raB5tsVcWmZe8-565" value="Solenoid valve" style="rounded=0;whiteSpace=wrap;html=1;fillColor=#3b4252;" vertex="1" parent="1">
          <mxGeometry x="-320" y="1250" width="80" height="40" as="geometry" />
        </mxCell>
        <mxCell id="_4XBoN6raB5tsVcWmZe8-566" value="Solenoid valve" style="rounded=0;whiteSpace=wrap;html=1;fillColor=#3b4252;" vertex="1" parent="1">
          <mxGeometry x="-320" y="1300" width="80" height="40" as="geometry" />
        </mxCell>
        <mxCell id="_4XBoN6raB5tsVcWmZe8-567" value="Solenoid valve" style="rounded=0;whiteSpace=wrap;html=1;fillColor=#3b4252;" vertex="1" parent="1">
          <mxGeometry x="-320" y="1350" width="80" height="40" as="geometry" />
        </mxCell>
        <mxCell id="_4XBoN6raB5tsVcWmZe8-568" value="Solenoid valve" style="rounded=0;whiteSpace=wrap;html=1;fillColor=#3b4252;" vertex="1" parent="1">
          <mxGeometry x="-320" y="1400" width="80" height="40" as="geometry" />
        </mxCell>
        <mxCell id="_4XBoN6raB5tsVcWmZe8-569" value="Solenoid valve" style="rounded=0;whiteSpace=wrap;html=1;fillColor=#3b4252;" vertex="1" parent="1">
          <mxGeometry x="-320" y="1450" width="80" height="40" as="geometry" />
        </mxCell>
        <mxCell id="_4XBoN6raB5tsVcWmZe8-570" value="Solenoid valve" style="rounded=0;whiteSpace=wrap;html=1;fillColor=#3b4252;" vertex="1" parent="1">
          <mxGeometry x="-320" y="1500" width="80" height="40" as="geometry" />
        </mxCell>
        <mxCell id="_4XBoN6raB5tsVcWmZe8-575" style="edgeStyle=orthogonalEdgeStyle;rounded=0;orthogonalLoop=1;jettySize=auto;html=1;entryX=1;entryY=0.25;entryDx=0;entryDy=0;startArrow=none;startFill=0;endArrow=none;endFill=0;dashed=1;dashPattern=1 1;" edge="1" parent="1" source="_4XBoN6raB5tsVcWmZe8-512" target="_4XBoN6raB5tsVcWmZe8-557">
          <mxGeometry relative="1" as="geometry" />
        </mxCell>
        <mxCell id="_4XBoN6raB5tsVcWmZe8-598" value="Solenoid valve" style="rounded=0;whiteSpace=wrap;html=1;fillColor=#3b4252;" vertex="1" parent="1">
          <mxGeometry x="-320" y="1550" width="80" height="40" as="geometry" />
        </mxCell>
      </root>
    </mxGraphModel>
  </diagram>
</mxfile>
